<?xml version="1.0" encoding="UTF-8" standalone="no"?>
<!DOCTYPE svg PUBLIC "-//W3C//DTD SVG 1.1//EN" "http://www.w3.org/Graphics/SVG/1.1/DTD/svg11.dtd">
<svg xmlns="http://www.w3.org/2000/svg" version="1.1" viewBox="0.00 0.00 1024.00 1024.00">
<g stroke-width="2.00" fill="none" stroke-linecap="butt">
<path stroke="#9ecda1" vector-effect="non-scaling-stroke" d="
  M 602.78 633.26
  Q 602.69 632.89 602.69 632.49
  Q 602.68 486.00 602.52 347.73
  Q 602.52 346.10 601.21 345.05
  Q 572.03 321.61 541.86 299.35
  C 528.55 289.54 515.42 279.53 502.42 269.27
  Q 493.94 262.57 485.75 257.67
  Q 466.88 246.38 442.81 244.67
  Q 407.71 242.17 379.64 262.06
  Q 373.25 266.58 364.50 275.20
  Q 326.45 312.64 287.96 350.72
  C 277.25 361.32 265.96 371.93 255.38 382.69
  A 0.67 0.67 0.0 0 0 255.38 383.63
  Q 263.65 392.29 270.84 399.41
  Q 328.42 456.47 386.47 514.13
  C 399.15 526.72 411.74 538.65 424.63 551.34
  Q 424.96 551.67 425.39 551.53
  A 0.51 0.49 81.4 0 0 425.73 551.05
  Q 425.81 530.96 425.71 508.77
  Q 425.70 506.61 424.31 505.27
  C 391.33 473.63 359.63 440.35 327.82 410.14
  C 319.85 402.57 318.19 388.54 319.51 377.79
  Q 320.58 369.14 325.24 360.82
  Q 327.53 356.74 334.16 350.46
  Q 358.83 327.10 384.61 302.09
  C 390.45 296.42 396.09 290.43 403.04 286.32
  C 424.46 273.63 453.25 274.80 473.60 290.11
  Q 511.26 318.44 554.74 350.09
  Q 559.62 353.65 561.54 356.15
  C 568.46 365.16 567.71 378.83 567.73 389.52
  Q 567.88 528.14 568.23 666.97
  A 0.32 0.32 0.0 0 0 568.55 667.29
  Q 649.43 666.96 730.36 666.96
  Q 730.51 666.96 730.65 666.90
  Q 730.80 666.83 730.94 666.77
  A 0.36 0.35 -35.5 0 0 731.04 666.20
  L 699.20 635.12
  A 4.84 4.84 0.0 0 0 695.80 633.75
  L 603.78 634.04
  Q 602.97 634.04 602.78 633.26"
/>
<path stroke="#9ecda1" vector-effect="non-scaling-stroke" d="
  M 628.87 283.72
  C 639.05 288.13 646.65 295.05 654.68 303.11
  Q 674.79 323.30 698.66 345.53
  Q 701.03 347.74 703.27 350.09
  C 707.77 354.79 712.66 358.84 715.04 365.16
  Q 720.94 380.89 716.31 397.51
  C 713.69 406.92 708.13 410.81 701.91 416.93
  Q 657.50 460.61 613.99 503.77
  Q 612.39 505.36 612.37 507.72
  Q 612.13 528.31 612.37 550.52
  A 0.50 0.49 0.0 0 0 612.87 551.01
  Q 613.10 551.01 613.27 550.85
  Q 648.40 516.60 679.35 485.46
  C 713.20 451.41 747.53 417.74 781.67 383.74
  Q 782.51 382.90 781.66 382.07
  Q 726.76 327.82 671.63 273.25
  C 658.79 260.54 644.15 251.24 626.46 247.20
  C 604.59 242.20 581.07 243.86 560.76 253.62
  Q 543.03 262.15 528.97 275.35
  Q 527.66 276.58 529.03 277.75
  Q 541.41 288.21 554.11 297.21
  A 1.22 1.22 0.0 0 0 555.64 297.12
  Q 558.65 294.39 561.84 291.70
  C 580.72 275.74 606.54 274.04 628.87 283.72"
/>
<path stroke="#9ecda1" vector-effect="non-scaling-stroke" d="
  M 433.53 631.71
  L 358.78 631.91
  Q 357.53 631.91 358.42 632.79
  L 415.06 688.71
  Q 415.84 689.48 416.64 688.73
  Q 441.62 665.00 466.16 640.25
  C 468.39 638.00 470.19 636.72 469.93 633.23
  Q 469.86 632.29 469.86 631.34
  Q 470.13 518.52 469.82 379.24
  C 469.81 371.59 471.29 363.54 475.98 357.51
  Q 478.82 353.87 484.16 349.86
  Q 497.01 340.21 510.40 329.78
  Q 510.95 329.35 510.50 328.82
  Q 510.03 328.27 509.36 327.77
  Q 500.22 321.03 490.06 313.71
  Q 486.18 310.91 483.75 308.70
  A 1.18 1.17 46.6 0 0 482.22 308.65
  L 436.04 345.80
  A 2.86 2.83 70.8 0 0 434.98 348.02
  Q 435.17 488.72 434.67 630.58
  Q 434.66 631.71 433.53 631.71"
/>
<path stroke="#9ecda1" vector-effect="non-scaling-stroke" d="
  M 559.21 471.15
  A 0.88 0.88 0.0 0 0 558.33 470.27
  L 479.77 470.27
  A 0.88 0.88 0.0 0 0 478.89 471.15
  L 478.89 508.51
  A 0.88 0.88 0.0 0 0 479.77 509.39
  L 558.33 509.39
  A 0.88 0.88 0.0 0 0 559.21 508.51
  L 559.21 471.15"
/>
<path stroke="#9ecda1" vector-effect="non-scaling-stroke" d="
  M 613.42 625.31
  Q 623.22 625.75 631.86 625.64
  Q 633.90 625.62 635.24 624.47
  C 642.94 617.89 653.30 608.01 662.00 599.58
  Q 690.17 572.26 716.04 547.46
  Q 718.35 545.25 715.15 545.24
  Q 696.33 545.20 675.82 545.34
  Q 673.33 545.36 671.46 547.17
  Q 643.66 574.01 614.31 602.15
  Q 612.62 603.77 612.58 606.14
  Q 612.41 615.17 612.65 624.53
  Q 612.67 625.28 613.42 625.31"
/>
<path stroke="#979696" vector-effect="non-scaling-stroke" d="
  M 209.63 750.78
  A 0.71 0.71 0.0 0 1 209.65 749.98
  L 220.91 734.44
  A 0.71 0.71 0.0 0 0 220.44 733.33
  L 216.93 732.79
  A 0.71 0.71 0.0 0 0 216.26 733.06
  L 202.85 750.12
  A 0.71 0.71 0.0 0 0 202.84 750.99
  L 216.68 769.51
  A 0.71 0.71 0.0 0 0 217.32 769.79
  L 220.45 769.47
  A 0.71 0.71 0.0 0 0 220.97 768.38
  L 209.63 750.78"
/>
<path stroke="#979696" vector-effect="non-scaling-stroke" d="
  M 664.28 765.30
  C 668.46 766.36 672.57 768.21 671.92 773.48
  C 671.02 780.80 662.33 782.42 656.07 781.73
  C 649.62 781.02 645.13 776.88 643.81 770.50
  Q 643.55 769.27 642.34 769.60
  L 637.54 770.90
  Q 635.97 771.32 636.32 772.91
  C 638.37 782.25 645.62 787.63 654.94 788.64
  C 661.22 789.32 667.22 788.55 672.70 785.15
  Q 682.02 779.36 678.84 768.29
  Q 676.69 760.82 668.83 758.58
  Q 661.98 756.63 655.24 754.92
  C 651.05 753.86 647.11 752.59 646.31 748.01
  Q 645.89 745.65 647.32 743.81
  C 650.31 739.95 655.77 739.30 660.51 739.76
  C 666.13 740.32 669.24 744.05 670.91 749.04
  Q 671.22 749.97 672.15 749.65
  L 677.64 747.73
  Q 679.02 747.25 678.55 745.86
  C 675.94 738.15 670.60 733.61 662.70 732.86
  C 654.72 732.09 646.31 732.94 641.19 739.59
  Q 637.74 744.08 638.94 750.14
  C 640.10 756.01 644.74 759.42 650.31 761.25
  Q 656.97 763.43 664.28 765.30"
/>
<path stroke="#979696" vector-effect="non-scaling-stroke" d="
  M 835.74 750.63
  C 833.93 752.19 830.64 750.31 828.93 752.72
  Q 822.47 761.83 818.66 768.49
  A 0.65 0.65 0.0 0 0 819.21 769.46
  L 831.28 769.67
  A 1.91 1.90 17.9 0 0 832.88 768.86
  L 845.64 750.59
  Q 845.95 750.15 845.63 749.71
  L 833.56 733.54
  A 2.00 1.98 -18.7 0 0 831.92 732.74
  L 819.48 733.06
  A 0.53 0.53 0.0 0 0 819.05 733.87
  Q 823.38 740.67 829.54 747.99
  C 831.02 749.75 833.44 749.51 835.51 749.84
  A 0.45 0.45 0.0 0 1 835.74 750.63"
/>
<path stroke="#979696" vector-effect="non-scaling-stroke" d="
  M 195.87 749.53
  Q 195.96 749.31 196.19 749.27
  C 198.40 748.84 200.45 749.06 201.92 747.05
  Q 207.17 739.86 211.61 733.78
  A 0.48 0.48 0.0 0 0 211.22 733.01
  L 198.06 732.98
  A 1.83 1.83 0.0 0 0 196.59 733.72
  L 184.42 750.15
  A 0.63 0.63 0.0 0 0 184.40 750.88
  L 196.52 769.07
  Q 196.88 769.62 197.54 769.62
  L 211.78 769.49
  A 0.39 0.39 0.0 0 0 212.10 768.89
  L 200.16 751.20
  A 1.42 1.41 78.4 0 0 199.25 750.60
  Q 197.59 750.25 196.00 750.41
  A 0.31 0.31 0.0 0 1 195.68 749.98
  L 195.87 749.53"
/>
<path stroke="#979696" vector-effect="non-scaling-stroke" d="
  M 269.94 754.68
  A 0.65 0.65 0.0 0 1 269.29 755.33
  L 244.32 755.39
  A 0.65 0.65 0.0 0 1 243.67 754.74
  L 243.73 733.90
  A 0.65 0.65 0.0 0 0 243.08 733.25
  L 236.33 733.24
  A 0.65 0.65 0.0 0 0 235.68 733.89
  L 236.00 786.99
  A 0.65 0.65 0.0 0 0 236.64 787.63
  L 242.91 787.65
  A 0.65 0.65 0.0 0 0 243.57 787.00
  L 243.75 762.91
  A 0.65 0.65 0.0 0 1 244.40 762.27
  L 269.32 762.25
  A 0.65 0.65 0.0 0 1 269.97 762.90
  L 270.15 787.35
  A 0.65 0.65 0.0 0 0 270.80 787.99
  L 277.21 787.91
  A 0.65 0.65 0.0 0 0 277.85 787.26
  L 277.97 733.87
  A 0.65 0.65 0.0 0 0 277.31 733.21
  L 270.60 733.26
  A 0.65 0.65 0.0 0 0 269.95 733.91
  L 269.94 754.68"
/>
<path stroke="#979696" vector-effect="non-scaling-stroke" d="
  M 303.30 771.98
  A 0.75 0.75 0.0 0 1 304.01 771.48
  L 324.53 771.59
  A 0.75 0.75 0.0 0 1 325.23 772.06
  L 331.26 787.47
  A 0.75 0.75 0.0 0 0 331.94 787.95
  L 338.49 788.05
  A 0.75 0.75 0.0 0 0 339.20 787.03
  L 318.64 733.69
  A 0.75 0.75 0.0 0 0 317.94 733.21
  L 310.01 733.21
  A 0.75 0.75 0.0 0 0 309.30 733.70
  L 289.96 786.88
  A 0.75 0.75 0.0 0 0 290.67 787.89
  L 297.09 787.92
  A 0.75 0.75 0.0 0 0 297.80 787.42
  L 303.30 771.98"
/>
<path stroke="#979696" vector-effect="non-scaling-stroke" d="
  M 380.06 763.67
  C 395.99 762.23 399.08 741.13 385.14 734.96
  C 381.59 733.39 377.76 733.26 373.97 733.27
  Q 363.24 733.28 351.32 733.44
  Q 350.72 733.44 350.72 734.04
  L 350.68 787.46
  A 0.65 0.64 -0.0 0 0 351.33 788.10
  L 357.30 788.04
  Q 358.14 788.04 358.16 787.20
  L 358.65 765.00
  A 0.98 0.98 0.0 0 1 359.58 764.04
  Q 363.53 763.81 367.22 764.32
  C 375.19 765.43 383.54 779.69 387.48 786.04
  Q 388.46 787.62 390.32 787.65
  L 397.49 787.75
  Q 399.21 787.78 398.21 786.38
  C 392.69 778.59 387.74 770.38 379.87 764.30
  Q 379.17 763.75 380.06 763.67"
/>
<path stroke="#979696" vector-effect="non-scaling-stroke" d="
  M 553.10 762.71
  Q 561.51 762.56 564.89 754.82
  C 568.56 746.40 564.94 737.60 556.47 734.36
  Q 553.25 733.12 545.74 733.21
  Q 534.78 733.33 523.78 733.26
  A 0.53 0.53 0.0 0 0 523.25 733.79
  L 523.41 785.07
  Q 523.42 787.73 526.07 787.75
  L 528.78 787.77
  Q 531.35 787.79 531.36 785.22
  L 531.45 764.30
  A 0.69 0.68 0.8 0 1 532.16 763.62
  Q 536.62 763.79 541.70 764.40
  C 544.08 764.68 546.36 765.74 547.91 767.60
  Q 554.58 775.58 560.52 785.64
  Q 561.02 786.48 561.70 787.18
  A 1.08 1.06 68.0 0 0 562.48 787.52
  L 571.51 787.46
  A 0.34 0.34 0.0 0 0 571.78 786.93
  Q 567.47 780.90 563.08 774.11
  Q 559.03 767.83 552.94 763.18
  Q 552.34 762.72 553.10 762.71"
/>
<path stroke="#979696" vector-effect="non-scaling-stroke" d="
  M 592.67 771.02
  L 612.23 771.28
  A 1.57 1.57 0.0 0 1 613.68 772.29
  L 619.19 786.81
  Q 619.55 787.75 620.55 787.74
  L 627.00 787.70
  Q 627.97 787.69 627.62 786.78
  L 607.23 734.02
  Q 606.97 733.36 606.27 733.36
  L 599.05 733.30
  A 1.18 1.17 10.5 0 0 597.95 734.05
  C 591.20 751.52 584.04 768.91 578.50 786.62
  A 0.77 0.76 -81.2 0 0 579.22 787.61
  L 584.84 787.69
  Q 585.95 787.71 586.33 786.66
  L 591.81 771.62
  Q 592.03 771.01 592.67 771.02"
/>
<path stroke="#979696" vector-effect="non-scaling-stroke" d="
  M 750.53 733.74
  L 750.43 787.16
  A 0.66 0.66 0.0 0 0 751.09 787.82
  L 771.54 787.86
  A 22.78 22.51 -89.9 0 0 794.09 765.12
  L 794.11 755.94
  A 22.78 22.51 -89.9 0 0 771.64 733.12
  L 751.19 733.08
  A 0.66 0.66 0.0 0 0 750.53 733.74"
/>
<path stroke="#979696" vector-effect="non-scaling-stroke" d="
  M 808.95 733.18
  A 0.49 0.49 0.0 0 0 808.54 733.95
  L 820.07 750.05
  A 0.49 0.49 0.0 0 1 820.08 750.60
  L 808.71 768.26
  A 0.49 0.49 0.0 0 0 809.09 769.02
  L 813.63 769.32
  A 0.49 0.49 0.0 0 0 814.06 769.12
  L 827.32 750.73
  A 0.49 0.49 0.0 0 0 827.32 750.15
  L 814.91 733.48
  A 0.49 0.49 0.0 0 0 814.53 733.29
  L 808.95 733.18"
/>
<path stroke="#979696" vector-effect="non-scaling-stroke" d="
  M 419.9728 734.0540
  A 0.49 0.49 0.0 0 0 419.4845 733.5623
  L 412.5446 733.5381
  A 0.49 0.49 0.0 0 0 412.0529 734.0263
  L 411.8672 787.2260
  A 0.49 0.49 0.0 0 0 412.3555 787.7177
  L 419.2954 787.7419
  A 0.49 0.49 0.0 0 0 419.7871 787.2537
  L 419.9728 734.0540"
/>
<path stroke="#979696" vector-effect="non-scaling-stroke" d="
  M 447.3767 733.8969
  A 0.27 0.27 0.0 0 0 447.1072 733.6264
  L 439.8072 733.6137
  A 0.27 0.27 0.0 0 0 439.5367 733.8832
  L 439.4433 787.4431
  A 0.27 0.27 0.0 0 0 439.7128 787.7136
  L 447.0128 787.7263
  A 0.27 0.27 0.0 0 0 447.2833 787.4568
  L 447.3767 733.8969"
/>
<path stroke="#979696" vector-effect="non-scaling-stroke" d="
  M 475.34 765.84
  Q 481.60 766.05 487.32 766.01
  C 499.67 765.93 509.08 759.32 506.35 745.62
  C 505.29 740.29 500.81 735.92 495.70 734.62
  Q 491.07 733.44 485.11 733.48
  Q 475.86 733.54 467.32 733.46
  Q 466.76 733.46 466.76 734.01
  L 466.75 786.73
  Q 466.75 787.72 467.74 787.71
  L 473.58 787.66
  Q 474.45 787.65 474.45 786.79
  L 474.64 766.52
  Q 474.64 765.82 475.34 765.84"
/>
<path stroke="#979696" vector-effect="non-scaling-stroke" d="
  M 702.08 771.89
  A 0.68 0.68 0.0 0 1 702.72 771.44
  L 723.02 771.52
  A 0.68 0.68 0.0 0 1 723.66 771.96
  L 729.64 787.81
  A 0.68 0.68 0.0 0 0 730.29 788.25
  L 737.21 788.09
  A 0.68 0.68 0.0 0 0 737.83 787.17
  L 717.37 733.95
  A 0.68 0.68 0.0 0 0 716.74 733.52
  L 708.21 733.43
  A 0.68 0.68 0.0 0 0 707.56 733.89
  L 688.83 786.87
  A 0.68 0.68 0.0 0 0 689.44 787.77
  L 695.68 788.00
  A 0.68 0.68 0.0 0 0 696.34 787.56
  L 702.08 771.89"
/>
<path stroke="#979696" vector-effect="non-scaling-stroke" d="
  M 306.18 764.10
  A 0.47 0.47 0.0 0 0 306.62 764.71
  L 321.76 764.98
  A 0.47 0.47 0.0 0 0 322.21 764.35
  L 314.20 742.15
  A 0.47 0.47 0.0 0 0 313.32 742.16
  L 306.18 764.10"
/>
<path stroke="#979696" vector-effect="non-scaling-stroke" d="
  M 358.52 741.44
  L 358.50 756.98
  A 1.00 1.00 0.0 0 0 359.49 757.98
  L 376.44 758.01
  A 9.35 8.06 0.1 0 0 385.81 749.96
  L 385.81 748.54
  A 9.35 8.06 0.1 0 0 376.48 740.47
  L 359.53 740.44
  A 1.00 1.00 0.0 0 0 358.52 741.44"
/>
<path stroke="#979696" vector-effect="non-scaling-stroke" d="
  M 531.57 740.93
  L 531.43 756.59
  A 0.88 0.88 0.0 0 0 532.30 757.48
  L 549.19 757.63
  A 8.71 8.22 0.5 0 0 557.98 749.49
  L 557.98 748.51
  A 8.71 8.22 0.5 0 0 549.35 740.21
  L 532.46 740.06
  A 0.88 0.88 0.0 0 0 531.57 740.93"
/>
<path stroke="#979696" vector-effect="non-scaling-stroke" d="
  M 594.52 764.22
  A 0.38 0.38 0.0 0 0 594.88 764.72
  L 610.33 764.81
  A 0.38 0.38 0.0 0 0 610.69 764.30
  L 602.76 741.84
  A 0.38 0.38 0.0 0 0 602.04 741.85
  L 594.52 764.22"
/>
<path stroke="#979696" vector-effect="non-scaling-stroke" d="
  M 758.53 741.53
  L 758.47 779.79
  A 1.26 1.26 0.0 0 0 759.72 781.05
  L 771.10 781.07
  A 15.94 14.84 -89.9 0 0 785.97 765.15
  L 785.99 756.25
  A 15.94 14.84 -89.9 0 0 771.18 740.29
  L 759.80 740.27
  A 1.26 1.26 0.0 0 0 758.53 741.53"
/>
<path stroke="#979696" vector-effect="non-scaling-stroke" d="
  M 474.71 741.24
  L 474.71 758.54
  A 0.78 0.78 0.0 0 0 475.49 759.32
  L 488.58 759.32
  A 9.95 8.37 -0.0 0 0 498.53 750.95
  L 498.53 748.83
  A 9.95 8.37 0.0 0 0 488.58 740.46
  L 475.49 740.46
  A 0.78 0.78 0.0 0 0 474.71 741.24"
/>
<path stroke="#979696" vector-effect="non-scaling-stroke" d="
  M 704.50 764.61
  A 0.47 0.47 0.0 0 0 704.94 765.23
  L 720.44 765.15
  A 0.47 0.47 0.0 0 0 720.88 764.53
  L 713.02 741.83
  A 0.47 0.47 0.0 0 0 712.13 741.84
  L 704.50 764.61"
/>
</g>
<path fill="#ffffff" d="
  M 0.00 0.00
  L 1024.00 0.00
  L 1024.00 1024.00
  L 0.00 1024.00
  L 0.00 0.00
  Z
  M 602.78 633.26
  Q 602.69 632.89 602.69 632.49
  Q 602.68 486.00 602.52 347.73
  Q 602.52 346.10 601.21 345.05
  Q 572.03 321.61 541.86 299.35
  C 528.55 289.54 515.42 279.53 502.42 269.27
  Q 493.94 262.57 485.75 257.67
  Q 466.88 246.38 442.81 244.67
  Q 407.71 242.17 379.64 262.06
  Q 373.25 266.58 364.50 275.20
  Q 326.45 312.64 287.96 350.72
  C 277.25 361.32 265.96 371.93 255.38 382.69
  A 0.67 0.67 0.0 0 0 255.38 383.63
  Q 263.65 392.29 270.84 399.41
  Q 328.42 456.47 386.47 514.13
  C 399.15 526.72 411.74 538.65 424.63 551.34
  Q 424.96 551.67 425.39 551.53
  A 0.51 0.49 81.4 0 0 425.73 551.05
  Q 425.81 530.96 425.71 508.77
  Q 425.70 506.61 424.31 505.27
  C 391.33 473.63 359.63 440.35 327.82 410.14
  C 319.85 402.57 318.19 388.54 319.51 377.79
  Q 320.58 369.14 325.24 360.82
  Q 327.53 356.74 334.16 350.46
  Q 358.83 327.10 384.61 302.09
  C 390.45 296.42 396.09 290.43 403.04 286.32
  C 424.46 273.63 453.25 274.80 473.60 290.11
  Q 511.26 318.44 554.74 350.09
  Q 559.62 353.65 561.54 356.15
  C 568.46 365.16 567.71 378.83 567.73 389.52
  Q 567.88 528.14 568.23 666.97
  A 0.32 0.32 0.0 0 0 568.55 667.29
  Q 649.43 666.96 730.36 666.96
  Q 730.51 666.96 730.65 666.90
  Q 730.80 666.83 730.94 666.77
  A 0.36 0.35 -35.5 0 0 731.04 666.20
  L 699.20 635.12
  A 4.84 4.84 0.0 0 0 695.80 633.75
  L 603.78 634.04
  Q 602.97 634.04 602.78 633.26
  Z
  M 628.87 283.72
  C 639.05 288.13 646.65 295.05 654.68 303.11
  Q 674.79 323.30 698.66 345.53
  Q 701.03 347.74 703.27 350.09
  C 707.77 354.79 712.66 358.84 715.04 365.16
  Q 720.94 380.89 716.31 397.51
  C 713.69 406.92 708.13 410.81 701.91 416.93
  Q 657.50 460.61 613.99 503.77
  Q 612.39 505.36 612.37 507.72
  Q 612.13 528.31 612.37 550.52
  A 0.50 0.49 0.0 0 0 612.87 551.01
  Q 613.10 551.01 613.27 550.85
  Q 648.40 516.60 679.35 485.46
  C 713.20 451.41 747.53 417.74 781.67 383.74
  Q 782.51 382.90 781.66 382.07
  Q 726.76 327.82 671.63 273.25
  C 658.79 260.54 644.15 251.24 626.46 247.20
  C 604.59 242.20 581.07 243.86 560.76 253.62
  Q 543.03 262.15 528.97 275.35
  Q 527.66 276.58 529.03 277.75
  Q 541.41 288.21 554.11 297.21
  A 1.22 1.22 0.0 0 0 555.64 297.12
  Q 558.65 294.39 561.84 291.70
  C 580.72 275.74 606.54 274.04 628.87 283.72
  Z
  M 433.53 631.71
  L 358.78 631.91
  Q 357.53 631.91 358.42 632.79
  L 415.06 688.71
  Q 415.84 689.48 416.64 688.73
  Q 441.62 665.00 466.16 640.25
  C 468.39 638.00 470.19 636.72 469.93 633.23
  Q 469.86 632.29 469.86 631.34
  Q 470.13 518.52 469.82 379.24
  C 469.81 371.59 471.29 363.54 475.98 357.51
  Q 478.82 353.87 484.16 349.86
  Q 497.01 340.21 510.40 329.78
  Q 510.95 329.35 510.50 328.82
  Q 510.03 328.27 509.36 327.77
  Q 500.22 321.03 490.06 313.71
  Q 486.18 310.91 483.75 308.70
  A 1.18 1.17 46.6 0 0 482.22 308.65
  L 436.04 345.80
  A 2.86 2.83 70.8 0 0 434.98 348.02
  Q 435.17 488.72 434.67 630.58
  Q 434.66 631.71 433.53 631.71
  Z
  M 559.21 471.15
  A 0.88 0.88 0.0 0 0 558.33 470.27
  L 479.77 470.27
  A 0.88 0.88 0.0 0 0 478.89 471.15
  L 478.89 508.51
  A 0.88 0.88 0.0 0 0 479.77 509.39
  L 558.33 509.39
  A 0.88 0.88 0.0 0 0 559.21 508.51
  L 559.21 471.15
  Z
  M 613.42 625.31
  Q 623.22 625.75 631.86 625.64
  Q 633.90 625.62 635.24 624.47
  C 642.94 617.89 653.30 608.01 662.00 599.58
  Q 690.17 572.26 716.04 547.46
  Q 718.35 545.25 715.15 545.24
  Q 696.33 545.20 675.82 545.34
  Q 673.33 545.36 671.46 547.17
  Q 643.66 574.01 614.31 602.15
  Q 612.62 603.77 612.58 606.14
  Q 612.41 615.17 612.65 624.53
  Q 612.67 625.28 613.42 625.31
  Z
  M 209.63 750.78
  A 0.71 0.71 0.0 0 1 209.65 749.98
  L 220.91 734.44
  A 0.71 0.71 0.0 0 0 220.44 733.33
  L 216.93 732.79
  A 0.71 0.71 0.0 0 0 216.26 733.06
  L 202.85 750.12
  A 0.71 0.71 0.0 0 0 202.84 750.99
  L 216.68 769.51
  A 0.71 0.71 0.0 0 0 217.32 769.79
  L 220.45 769.47
  A 0.71 0.71 0.0 0 0 220.97 768.38
  L 209.63 750.78
  Z
  M 664.28 765.30
  C 668.46 766.36 672.57 768.21 671.92 773.48
  C 671.02 780.80 662.33 782.42 656.07 781.73
  C 649.62 781.02 645.13 776.88 643.81 770.50
  Q 643.55 769.27 642.34 769.60
  L 637.54 770.90
  Q 635.97 771.32 636.32 772.91
  C 638.37 782.25 645.62 787.63 654.94 788.64
  C 661.22 789.32 667.22 788.55 672.70 785.15
  Q 682.02 779.36 678.84 768.29
  Q 676.69 760.82 668.83 758.58
  Q 661.98 756.63 655.24 754.92
  C 651.05 753.86 647.11 752.59 646.31 748.01
  Q 645.89 745.65 647.32 743.81
  C 650.31 739.95 655.77 739.30 660.51 739.76
  C 666.13 740.32 669.24 744.05 670.91 749.04
  Q 671.22 749.97 672.15 749.65
  L 677.64 747.73
  Q 679.02 747.25 678.55 745.86
  C 675.94 738.15 670.60 733.61 662.70 732.86
  C 654.72 732.09 646.31 732.94 641.19 739.59
  Q 637.74 744.08 638.94 750.14
  C 640.10 756.01 644.74 759.42 650.31 761.25
  Q 656.97 763.43 664.28 765.30
  Z
  M 835.74 750.63
  C 833.93 752.19 830.64 750.31 828.93 752.72
  Q 822.47 761.83 818.66 768.49
  A 0.65 0.65 0.0 0 0 819.21 769.46
  L 831.28 769.67
  A 1.91 1.90 17.9 0 0 832.88 768.86
  L 845.64 750.59
  Q 845.95 750.15 845.63 749.71
  L 833.56 733.54
  A 2.00 1.98 -18.7 0 0 831.92 732.74
  L 819.48 733.06
  A 0.53 0.53 0.0 0 0 819.05 733.87
  Q 823.38 740.67 829.54 747.99
  C 831.02 749.75 833.44 749.51 835.51 749.84
  A 0.45 0.45 0.0 0 1 835.74 750.63
  Z
  M 195.87 749.53
  Q 195.96 749.31 196.19 749.27
  C 198.40 748.84 200.45 749.06 201.92 747.05
  Q 207.17 739.86 211.61 733.78
  A 0.48 0.48 0.0 0 0 211.22 733.01
  L 198.06 732.98
  A 1.83 1.83 0.0 0 0 196.59 733.72
  L 184.42 750.15
  A 0.63 0.63 0.0 0 0 184.40 750.88
  L 196.52 769.07
  Q 196.88 769.62 197.54 769.62
  L 211.78 769.49
  A 0.39 0.39 0.0 0 0 212.10 768.89
  L 200.16 751.20
  A 1.42 1.41 78.4 0 0 199.25 750.60
  Q 197.59 750.25 196.00 750.41
  A 0.31 0.31 0.0 0 1 195.68 749.98
  L 195.87 749.53
  Z
  M 269.94 754.68
  A 0.65 0.65 0.0 0 1 269.29 755.33
  L 244.32 755.39
  A 0.65 0.65 0.0 0 1 243.67 754.74
  L 243.73 733.90
  A 0.65 0.65 0.0 0 0 243.08 733.25
  L 236.33 733.24
  A 0.65 0.65 0.0 0 0 235.68 733.89
  L 236.00 786.99
  A 0.65 0.65 0.0 0 0 236.64 787.63
  L 242.91 787.65
  A 0.65 0.65 0.0 0 0 243.57 787.00
  L 243.75 762.91
  A 0.65 0.65 0.0 0 1 244.40 762.27
  L 269.32 762.25
  A 0.65 0.65 0.0 0 1 269.97 762.90
  L 270.15 787.35
  A 0.65 0.65 0.0 0 0 270.80 787.99
  L 277.21 787.91
  A 0.65 0.65 0.0 0 0 277.85 787.26
  L 277.97 733.87
  A 0.65 0.65 0.0 0 0 277.31 733.21
  L 270.60 733.26
  A 0.65 0.65 0.0 0 0 269.95 733.91
  L 269.94 754.68
  Z
  M 303.30 771.98
  A 0.75 0.75 0.0 0 1 304.01 771.48
  L 324.53 771.59
  A 0.75 0.75 0.0 0 1 325.23 772.06
  L 331.26 787.47
  A 0.75 0.75 0.0 0 0 331.94 787.95
  L 338.49 788.05
  A 0.75 0.75 0.0 0 0 339.20 787.03
  L 318.64 733.69
  A 0.75 0.75 0.0 0 0 317.94 733.21
  L 310.01 733.21
  A 0.75 0.75 0.0 0 0 309.30 733.70
  L 289.96 786.88
  A 0.75 0.75 0.0 0 0 290.67 787.89
  L 297.09 787.92
  A 0.75 0.75 0.0 0 0 297.80 787.42
  L 303.30 771.98
  Z
  M 380.06 763.67
  C 395.99 762.23 399.08 741.13 385.14 734.96
  C 381.59 733.39 377.76 733.26 373.97 733.27
  Q 363.24 733.28 351.32 733.44
  Q 350.72 733.44 350.72 734.04
  L 350.68 787.46
  A 0.65 0.64 -0.0 0 0 351.33 788.10
  L 357.30 788.04
  Q 358.14 788.04 358.16 787.20
  L 358.65 765.00
  A 0.98 0.98 0.0 0 1 359.58 764.04
  Q 363.53 763.81 367.22 764.32
  C 375.19 765.43 383.54 779.69 387.48 786.04
  Q 388.46 787.62 390.32 787.65
  L 397.49 787.75
  Q 399.21 787.78 398.21 786.38
  C 392.69 778.59 387.74 770.38 379.87 764.30
  Q 379.17 763.75 380.06 763.67
  Z
  M 553.10 762.71
  Q 561.51 762.56 564.89 754.82
  C 568.56 746.40 564.94 737.60 556.47 734.36
  Q 553.25 733.12 545.74 733.21
  Q 534.78 733.33 523.78 733.26
  A 0.53 0.53 0.0 0 0 523.25 733.79
  L 523.41 785.07
  Q 523.42 787.73 526.07 787.75
  L 528.78 787.77
  Q 531.35 787.79 531.36 785.22
  L 531.45 764.30
  A 0.69 0.68 0.8 0 1 532.16 763.62
  Q 536.62 763.79 541.70 764.40
  C 544.08 764.68 546.36 765.74 547.91 767.60
  Q 554.58 775.58 560.52 785.64
  Q 561.02 786.48 561.70 787.18
  A 1.08 1.06 68.0 0 0 562.48 787.52
  L 571.51 787.46
  A 0.34 0.34 0.0 0 0 571.78 786.93
  Q 567.47 780.90 563.08 774.11
  Q 559.03 767.83 552.94 763.18
  Q 552.34 762.72 553.10 762.71
  Z
  M 592.67 771.02
  L 612.23 771.28
  A 1.57 1.57 0.0 0 1 613.68 772.29
  L 619.19 786.81
  Q 619.55 787.75 620.55 787.74
  L 627.00 787.70
  Q 627.97 787.69 627.62 786.78
  L 607.23 734.02
  Q 606.97 733.36 606.27 733.36
  L 599.05 733.30
  A 1.18 1.17 10.5 0 0 597.95 734.05
  C 591.20 751.52 584.04 768.91 578.50 786.62
  A 0.77 0.76 -81.2 0 0 579.22 787.61
  L 584.84 787.69
  Q 585.95 787.71 586.33 786.66
  L 591.81 771.62
  Q 592.03 771.01 592.67 771.02
  Z
  M 750.53 733.74
  L 750.43 787.16
  A 0.66 0.66 0.0 0 0 751.09 787.82
  L 771.54 787.86
  A 22.78 22.51 -89.9 0 0 794.09 765.12
  L 794.11 755.94
  A 22.78 22.51 -89.9 0 0 771.64 733.12
  L 751.19 733.08
  A 0.66 0.66 0.0 0 0 750.53 733.74
  Z
  M 808.95 733.18
  A 0.49 0.49 0.0 0 0 808.54 733.95
  L 820.07 750.05
  A 0.49 0.49 0.0 0 1 820.08 750.60
  L 808.71 768.26
  A 0.49 0.49 0.0 0 0 809.09 769.02
  L 813.63 769.32
  A 0.49 0.49 0.0 0 0 814.06 769.12
  L 827.32 750.73
  A 0.49 0.49 0.0 0 0 827.32 750.15
  L 814.91 733.48
  A 0.49 0.49 0.0 0 0 814.53 733.29
  L 808.95 733.18
  Z
  M 419.9728 734.0540
  A 0.49 0.49 0.0 0 0 419.4845 733.5623
  L 412.5446 733.5381
  A 0.49 0.49 0.0 0 0 412.0529 734.0263
  L 411.8672 787.2260
  A 0.49 0.49 0.0 0 0 412.3555 787.7177
  L 419.2954 787.7419
  A 0.49 0.49 0.0 0 0 419.7871 787.2537
  L 419.9728 734.0540
  Z
  M 447.3767 733.8969
  A 0.27 0.27 0.0 0 0 447.1072 733.6264
  L 439.8072 733.6137
  A 0.27 0.27 0.0 0 0 439.5367 733.8832
  L 439.4433 787.4431
  A 0.27 0.27 0.0 0 0 439.7128 787.7136
  L 447.0128 787.7263
  A 0.27 0.27 0.0 0 0 447.2833 787.4568
  L 447.3767 733.8969
  Z
  M 475.34 765.84
  Q 481.60 766.05 487.32 766.01
  C 499.67 765.93 509.08 759.32 506.35 745.62
  C 505.29 740.29 500.81 735.92 495.70 734.62
  Q 491.07 733.44 485.11 733.48
  Q 475.86 733.54 467.32 733.46
  Q 466.76 733.46 466.76 734.01
  L 466.75 786.73
  Q 466.75 787.72 467.74 787.71
  L 473.58 787.66
  Q 474.45 787.65 474.45 786.79
  L 474.64 766.52
  Q 474.64 765.82 475.34 765.84
  Z
  M 702.08 771.89
  A 0.68 0.68 0.0 0 1 702.72 771.44
  L 723.02 771.52
  A 0.68 0.68 0.0 0 1 723.66 771.96
  L 729.64 787.81
  A 0.68 0.68 0.0 0 0 730.29 788.25
  L 737.21 788.09
  A 0.68 0.68 0.0 0 0 737.83 787.17
  L 717.37 733.95
  A 0.68 0.68 0.0 0 0 716.74 733.52
  L 708.21 733.43
  A 0.68 0.68 0.0 0 0 707.56 733.89
  L 688.83 786.87
  A 0.68 0.68 0.0 0 0 689.44 787.77
  L 695.68 788.00
  A 0.68 0.68 0.0 0 0 696.34 787.56
  L 702.08 771.89
  Z"
/>
<path fill="#3c9b42" d="
  M 602.78 633.26
  Q 602.97 634.04 603.78 634.04
  L 695.80 633.75
  A 4.84 4.84 0.0 0 1 699.20 635.12
  L 731.04 666.20
  A 0.36 0.35 -35.5 0 1 730.94 666.77
  Q 730.80 666.83 730.65 666.90
  Q 730.51 666.96 730.36 666.96
  Q 649.43 666.96 568.55 667.29
  A 0.32 0.32 0.0 0 1 568.23 666.97
  Q 567.88 528.14 567.73 389.52
  C 567.71 378.83 568.46 365.16 561.54 356.15
  Q 559.62 353.65 554.74 350.09
  Q 511.26 318.44 473.60 290.11
  C 453.25 274.80 424.46 273.63 403.04 286.32
  C 396.09 290.43 390.45 296.42 384.61 302.09
  Q 358.83 327.10 334.16 350.46
  Q 327.53 356.74 325.24 360.82
  Q 320.58 369.14 319.51 377.79
  C 318.19 388.54 319.85 402.57 327.82 410.14
  C 359.63 440.35 391.33 473.63 424.31 505.27
  Q 425.70 506.61 425.71 508.77
  Q 425.81 530.96 425.73 551.05
  A 0.51 0.49 81.4 0 1 425.39 551.53
  Q 424.96 551.67 424.63 551.34
  C 411.74 538.65 399.15 526.72 386.47 514.13
  Q 328.42 456.47 270.84 399.41
  Q 263.65 392.29 255.38 383.63
  A 0.67 0.67 0.0 0 1 255.38 382.69
  C 265.96 371.93 277.25 361.32 287.96 350.72
  Q 326.45 312.64 364.50 275.20
  Q 373.25 266.58 379.64 262.06
  Q 407.71 242.17 442.81 244.67
  Q 466.88 246.38 485.75 257.67
  Q 493.94 262.57 502.42 269.27
  C 515.42 279.53 528.55 289.54 541.86 299.35
  Q 572.03 321.61 601.21 345.05
  Q 602.52 346.10 602.52 347.73
  Q 602.68 486.00 602.69 632.49
  Q 602.69 632.89 602.78 633.26
  Z"
/>
<path fill="#3c9b42" d="
  M 628.87 283.72
  C 606.54 274.04 580.72 275.74 561.84 291.70
  Q 558.65 294.39 555.64 297.12
  A 1.22 1.22 0.0 0 1 554.11 297.21
  Q 541.41 288.21 529.03 277.75
  Q 527.66 276.58 528.97 275.35
  Q 543.03 262.15 560.76 253.62
  C 581.07 243.86 604.59 242.20 626.46 247.20
  C 644.15 251.24 658.79 260.54 671.63 273.25
  Q 726.76 327.82 781.66 382.07
  Q 782.51 382.90 781.67 383.74
  C 747.53 417.74 713.20 451.41 679.35 485.46
  Q 648.40 516.60 613.27 550.85
  Q 613.10 551.01 612.87 551.01
  A 0.50 0.49 0.0 0 1 612.37 550.52
  Q 612.13 528.31 612.37 507.72
  Q 612.39 505.36 613.99 503.77
  Q 657.50 460.61 701.91 416.93
  C 708.13 410.81 713.69 406.92 716.31 397.51
  Q 720.94 380.89 715.04 365.16
  C 712.66 358.84 707.77 354.79 703.27 350.09
  Q 701.03 347.74 698.66 345.53
  Q 674.79 323.30 654.68 303.11
  C 646.65 295.05 639.05 288.13 628.87 283.72
  Z"
/>
<path fill="#3c9b42" d="
  M 433.53 631.71
  Q 434.66 631.71 434.67 630.58
  Q 435.17 488.72 434.98 348.02
  A 2.86 2.83 70.8 0 1 436.04 345.80
  L 482.22 308.65
  A 1.18 1.17 46.6 0 1 483.75 308.70
  Q 486.18 310.91 490.06 313.71
  Q 500.22 321.03 509.36 327.77
  Q 510.03 328.27 510.50 328.82
  Q 510.95 329.35 510.40 329.78
  Q 497.01 340.21 484.16 349.86
  Q 478.82 353.87 475.98 357.51
  C 471.29 363.54 469.81 371.59 469.82 379.24
  Q 470.13 518.52 469.86 631.34
  Q 469.86 632.29 469.93 633.23
  C 470.19 636.72 468.39 638.00 466.16 640.25
  Q 441.62 665.00 416.64 688.73
  Q 415.84 689.48 415.06 688.71
  L 358.42 632.79
  Q 357.53 631.91 358.78 631.91
  L 433.53 631.71
  Z"
/>
<rect fill="#3c9b42" x="478.89" y="470.27" width="80.32" height="39.12" rx="0.88"/>
<path fill="#3c9b42" d="
  M 613.42 625.31
  Q 612.67 625.28 612.65 624.53
  Q 612.41 615.17 612.58 606.14
  Q 612.62 603.77 614.31 602.15
  Q 643.66 574.01 671.46 547.17
  Q 673.33 545.36 675.82 545.34
  Q 696.33 545.20 715.15 545.24
  Q 718.35 545.25 716.04 547.46
  Q 690.17 572.26 662.00 599.58
  C 653.30 608.01 642.94 617.89 635.24 624.47
  Q 633.90 625.62 631.86 625.64
  Q 623.22 625.75 613.42 625.31
  Z"
/>
<path fill="#2e2d2c" d="
  M 209.63 750.78
  L 220.97 768.38
  A 0.71 0.71 0.0 0 1 220.45 769.47
  L 217.32 769.79
  A 0.71 0.71 0.0 0 1 216.68 769.51
  L 202.84 750.99
  A 0.71 0.71 0.0 0 1 202.85 750.12
  L 216.26 733.06
  A 0.71 0.71 0.0 0 1 216.93 732.79
  L 220.44 733.33
  A 0.71 0.71 0.0 0 1 220.91 734.44
  L 209.65 749.98
  A 0.71 0.71 0.0 0 0 209.63 750.78
  Z"
/>
<path fill="#2e2d2c" d="
  M 671.92 773.48
  C 672.57 768.21 668.46 766.36 664.28 765.30
  Q 656.97 763.43 650.31 761.25
  C 644.74 759.42 640.10 756.01 638.94 750.14
  Q 637.74 744.08 641.19 739.59
  C 646.31 732.94 654.72 732.09 662.70 732.86
  C 670.60 733.61 675.94 738.15 678.55 745.86
  Q 679.02 747.25 677.64 747.73
  L 672.15 749.65
  Q 671.22 749.97 670.91 749.04
  C 669.24 744.05 666.13 740.32 660.51 739.76
  C 655.77 739.30 650.31 739.95 647.32 743.81
  Q 645.89 745.65 646.31 748.01
  C 647.11 752.59 651.05 753.86 655.24 754.92
  Q 661.98 756.63 668.83 758.58
  Q 676.69 760.82 678.84 768.29
  Q 682.02 779.36 672.70 785.15
  C 667.22 788.55 661.22 789.32 654.94 788.64
  C 645.62 787.63 638.37 782.25 636.32 772.91
  Q 635.97 771.32 637.54 770.90
  L 642.34 769.60
  Q 643.55 769.27 643.81 770.50
  C 645.13 776.88 649.62 781.02 656.07 781.73
  C 662.33 782.42 671.02 780.80 671.92 773.48
  Z"
/>
<path fill="#2e2d2c" d="
  M 835.74 750.63
  A 0.45 0.45 0.0 0 0 835.51 749.84
  C 833.44 749.51 831.02 749.75 829.54 747.99
  Q 823.38 740.67 819.05 733.87
  A 0.53 0.53 0.0 0 1 819.48 733.06
  L 831.92 732.74
  A 2.00 1.98 -18.7 0 1 833.56 733.54
  L 845.63 749.71
  Q 845.95 750.15 845.64 750.59
  L 832.88 768.86
  A 1.91 1.90 17.9 0 1 831.28 769.67
  L 819.21 769.46
  A 0.65 0.65 0.0 0 1 818.66 768.49
  Q 822.47 761.83 828.93 752.72
  C 830.64 750.31 833.93 752.19 835.74 750.63
  Z"
/>
<path fill="#2e2d2c" d="
  M 196.00 750.41
  Q 197.59 750.25 199.25 750.60
  A 1.42 1.41 78.4 0 1 200.16 751.20
  L 212.10 768.89
  A 0.39 0.39 0.0 0 1 211.78 769.49
  L 197.54 769.62
  Q 196.88 769.62 196.52 769.07
  L 184.40 750.88
  A 0.63 0.63 0.0 0 1 184.42 750.15
  L 196.59 733.72
  A 1.83 1.83 0.0 0 1 198.06 732.98
  L 211.22 733.01
  A 0.48 0.48 0.0 0 1 211.61 733.78
  Q 207.17 739.86 201.92 747.05
  C 200.45 749.06 198.40 748.84 196.19 749.27
  Q 195.96 749.31 195.87 749.53
  L 195.68 749.98
  A 0.31 0.31 0.0 0 0 196.00 750.41
  Z"
/>
<path fill="#2e2d2c" d="
  M 269.94 754.68
  L 269.95 733.91
  A 0.65 0.65 0.0 0 1 270.60 733.26
  L 277.31 733.21
  A 0.65 0.65 0.0 0 1 277.97 733.87
  L 277.85 787.26
  A 0.65 0.65 0.0 0 1 277.21 787.91
  L 270.80 787.99
  A 0.65 0.65 0.0 0 1 270.15 787.35
  L 269.97 762.90
  A 0.65 0.65 0.0 0 0 269.32 762.25
  L 244.40 762.27
  A 0.65 0.65 0.0 0 0 243.75 762.91
  L 243.57 787.00
  A 0.65 0.65 0.0 0 1 242.91 787.65
  L 236.64 787.63
  A 0.65 0.65 0.0 0 1 236.00 786.99
  L 235.68 733.89
  A 0.65 0.65 0.0 0 1 236.33 733.24
  L 243.08 733.25
  A 0.65 0.65 0.0 0 1 243.73 733.90
  L 243.67 754.74
  A 0.65 0.65 0.0 0 0 244.32 755.39
  L 269.29 755.33
  A 0.65 0.65 0.0 0 0 269.94 754.68
  Z"
/>
<path fill="#2e2d2c" d="
  M 303.30 771.98
  L 297.80 787.42
  A 0.75 0.75 0.0 0 1 297.09 787.92
  L 290.67 787.89
  A 0.75 0.75 0.0 0 1 289.96 786.88
  L 309.30 733.70
  A 0.75 0.75 0.0 0 1 310.01 733.21
  L 317.94 733.21
  A 0.75 0.75 0.0 0 1 318.64 733.69
  L 339.20 787.03
  A 0.75 0.75 0.0 0 1 338.49 788.05
  L 331.94 787.95
  A 0.75 0.75 0.0 0 1 331.26 787.47
  L 325.23 772.06
  A 0.75 0.75 0.0 0 0 324.53 771.59
  L 304.01 771.48
  A 0.75 0.75 0.0 0 0 303.30 771.98
  Z
  M 306.18 764.10
  A 0.47 0.47 0.0 0 0 306.62 764.71
  L 321.76 764.98
  A 0.47 0.47 0.0 0 0 322.21 764.35
  L 314.20 742.15
  A 0.47 0.47 0.0 0 0 313.32 742.16
  L 306.18 764.10
  Z"
/>
<path fill="#2e2d2c" d="
  M 379.87 764.30
  C 387.74 770.38 392.69 778.59 398.21 786.38
  Q 399.21 787.78 397.49 787.75
  L 390.32 787.65
  Q 388.46 787.62 387.48 786.04
  C 383.54 779.69 375.19 765.43 367.22 764.32
  Q 363.53 763.81 359.58 764.04
  A 0.98 0.98 0.0 0 0 358.65 765.00
  L 358.16 787.20
  Q 358.14 788.04 357.30 788.04
  L 351.33 788.10
  A 0.65 0.64 -0.0 0 1 350.68 787.46
  L 350.72 734.04
  Q 350.72 733.44 351.32 733.44
  Q 363.24 733.28 373.97 733.27
  C 377.76 733.26 381.59 733.39 385.14 734.96
  C 399.08 741.13 395.99 762.23 380.06 763.67
  Q 379.17 763.75 379.87 764.30
  Z
  M 358.52 741.44
  L 358.50 756.98
  A 1.00 1.00 0.0 0 0 359.49 757.98
  L 376.44 758.01
  A 9.35 8.06 0.1 0 0 385.81 749.96
  L 385.81 748.54
  A 9.35 8.06 0.1 0 0 376.48 740.47
  L 359.53 740.44
  A 1.00 1.00 0.0 0 0 358.52 741.44
  Z"
/>
<path fill="#2e2d2c" d="
  M 553.10 762.71
  Q 552.34 762.72 552.94 763.18
  Q 559.03 767.83 563.08 774.11
  Q 567.47 780.90 571.78 786.93
  A 0.34 0.34 0.0 0 1 571.51 787.46
  L 562.48 787.52
  A 1.08 1.06 68.0 0 1 561.70 787.18
  Q 561.02 786.48 560.52 785.64
  Q 554.58 775.58 547.91 767.60
  C 546.36 765.74 544.08 764.68 541.70 764.40
  Q 536.62 763.79 532.16 763.62
  A 0.69 0.68 0.8 0 0 531.45 764.30
  L 531.36 785.22
  Q 531.35 787.79 528.78 787.77
  L 526.07 787.75
  Q 523.42 787.73 523.41 785.07
  L 523.25 733.79
  A 0.53 0.53 0.0 0 1 523.78 733.26
  Q 534.78 733.33 545.74 733.21
  Q 553.25 733.12 556.47 734.36
  C 564.94 737.60 568.56 746.40 564.89 754.82
  Q 561.51 762.56 553.10 762.71
  Z
  M 531.57 740.93
  L 531.43 756.59
  A 0.88 0.88 0.0 0 0 532.30 757.48
  L 549.19 757.63
  A 8.71 8.22 0.5 0 0 557.98 749.49
  L 557.98 748.51
  A 8.71 8.22 0.5 0 0 549.35 740.21
  L 532.46 740.06
  A 0.88 0.88 0.0 0 0 531.57 740.93
  Z"
/>
<path fill="#2e2d2c" d="
  M 591.81 771.62
  L 586.33 786.66
  Q 585.95 787.71 584.84 787.69
  L 579.22 787.61
  A 0.77 0.76 -81.2 0 1 578.50 786.62
  C 584.04 768.91 591.20 751.52 597.95 734.05
  A 1.18 1.17 10.5 0 1 599.05 733.30
  L 606.27 733.36
  Q 606.97 733.36 607.23 734.02
  L 627.62 786.78
  Q 627.97 787.69 627.00 787.70
  L 620.55 787.74
  Q 619.55 787.75 619.19 786.81
  L 613.68 772.29
  A 1.57 1.57 0.0 0 0 612.23 771.28
  L 592.67 771.02
  Q 592.03 771.01 591.81 771.62
  Z
  M 594.52 764.22
  A 0.38 0.38 0.0 0 0 594.88 764.72
  L 610.33 764.81
  A 0.38 0.38 0.0 0 0 610.69 764.30
  L 602.76 741.84
  A 0.38 0.38 0.0 0 0 602.04 741.85
  L 594.52 764.22
  Z"
/>
<path fill="#2e2d2c" d="
  M 750.53 733.74
  A 0.66 0.66 0.0 0 1 751.19 733.08
  L 771.64 733.12
  A 22.78 22.51 -89.9 0 1 794.11 755.94
  L 794.09 765.12
  A 22.78 22.51 -89.9 0 1 771.54 787.86
  L 751.09 787.82
  A 0.66 0.66 0.0 0 1 750.43 787.16
  L 750.53 733.74
  Z
  M 758.53 741.53
  L 758.47 779.79
  A 1.26 1.26 0.0 0 0 759.72 781.05
  L 771.10 781.07
  A 15.94 14.84 -89.9 0 0 785.97 765.15
  L 785.99 756.25
  A 15.94 14.84 -89.9 0 0 771.18 740.29
  L 759.80 740.27
  A 1.26 1.26 0.0 0 0 758.53 741.53
  Z"
/>
<path fill="#2e2d2c" d="
  M 808.95 733.18
  L 814.53 733.29
  A 0.49 0.49 0.0 0 1 814.91 733.48
  L 827.32 750.15
  A 0.49 0.49 0.0 0 1 827.32 750.73
  L 814.06 769.12
  A 0.49 0.49 0.0 0 1 813.63 769.32
  L 809.09 769.02
  A 0.49 0.49 0.0 0 1 808.71 768.26
  L 820.08 750.60
  A 0.49 0.49 0.0 0 0 820.07 750.05
  L 808.54 733.95
  A 0.49 0.49 0.0 0 1 808.95 733.18
  Z"
/>
<rect fill="#2e2d2c" x="-3.96" y="-27.09" transform="translate(415.92,760.64) rotate(0.2)" width="7.92" height="54.18" rx="0.49"/>
<rect fill="#2e2d2c" x="-3.92" y="-27.05" transform="translate(443.41,760.67) rotate(0.1)" width="7.84" height="54.10" rx="0.27"/>
<path fill="#2e2d2c" d="
  M 474.64 766.52
  L 474.45 786.79
  Q 474.45 787.65 473.58 787.66
  L 467.74 787.71
  Q 466.75 787.72 466.75 786.73
  L 466.76 734.01
  Q 466.76 733.46 467.32 733.46
  Q 475.86 733.54 485.11 733.48
  Q 491.07 733.44 495.70 734.62
  C 500.81 735.92 505.29 740.29 506.35 745.62
  C 509.08 759.32 499.67 765.93 487.32 766.01
  Q 481.60 766.05 475.34 765.84
  Q 474.64 765.82 474.64 766.52
  Z
  M 474.71 741.24
  L 474.71 758.54
  A 0.78 0.78 0.0 0 0 475.49 759.32
  L 488.58 759.32
  A 9.95 8.37 -0.0 0 0 498.53 750.95
  L 498.53 748.83
  A 9.95 8.37 0.0 0 0 488.58 740.46
  L 475.49 740.46
  A 0.78 0.78 0.0 0 0 474.71 741.24
  Z"
/>
<path fill="#2e2d2c" d="
  M 702.08 771.89
  L 696.34 787.56
  A 0.68 0.68 0.0 0 1 695.68 788.00
  L 689.44 787.77
  A 0.68 0.68 0.0 0 1 688.83 786.87
  L 707.56 733.89
  A 0.68 0.68 0.0 0 1 708.21 733.43
  L 716.74 733.52
  A 0.68 0.68 0.0 0 1 717.37 733.95
  L 737.83 787.17
  A 0.68 0.68 0.0 0 1 737.21 788.09
  L 730.29 788.25
  A 0.68 0.68 0.0 0 1 729.64 787.81
  L 723.66 771.96
  A 0.68 0.68 0.0 0 0 723.02 771.52
  L 702.72 771.44
  A 0.68 0.68 0.0 0 0 702.08 771.89
  Z
  M 704.50 764.61
  A 0.47 0.47 0.0 0 0 704.94 765.23
  L 720.44 765.15
  A 0.47 0.47 0.0 0 0 720.88 764.53
  L 713.02 741.83
  A 0.47 0.47 0.0 0 0 712.13 741.84
  L 704.50 764.61
  Z"
/>
<path fill="#ffffff" d="
  M 531.57 740.93
  A 0.88 0.88 0.0 0 1 532.46 740.06
  L 549.35 740.21
  A 8.71 8.22 0.5 0 1 557.98 748.51
  L 557.98 749.49
  A 8.71 8.22 0.5 0 1 549.19 757.63
  L 532.30 757.48
  A 0.88 0.88 0.0 0 1 531.43 756.59
  L 531.57 740.93
  Z"
/>
<path fill="#ffffff" d="
  M 358.52 741.44
  A 1.00 1.00 0.0 0 1 359.53 740.44
  L 376.48 740.47
  A 9.35 8.06 0.1 0 1 385.81 748.54
  L 385.81 749.96
  A 9.35 8.06 0.1 0 1 376.44 758.01
  L 359.49 757.98
  A 1.00 1.00 0.0 0 1 358.50 756.98
  L 358.52 741.44
  Z"
/>
<path fill="#ffffff" d="
  M 474.71 741.24
  A 0.78 0.78 0.0 0 1 475.49 740.46
  L 488.58 740.46
  A 9.95 8.37 0.0 0 1 498.53 748.83
  L 498.53 750.95
  A 9.95 8.37 0.0 0 1 488.58 759.32
  L 475.49 759.32
  A 0.78 0.78 0.0 0 1 474.71 758.54
  L 474.71 741.24
  Z"
/>
<path fill="#ffffff" d="
  M 758.53 741.53
  A 1.26 1.26 0.0 0 1 759.80 740.27
  L 771.18 740.29
  A 15.94 14.84 -89.9 0 1 785.99 756.25
  L 785.97 765.15
  A 15.94 14.84 -89.9 0 1 771.10 781.07
  L 759.72 781.05
  A 1.26 1.26 0.0 0 1 758.47 779.79
  L 758.53 741.53
  Z"
/>
<path fill="#ffffff" d="
  M 594.52 764.22
  L 602.04 741.85
  A 0.38 0.38 0.0 0 1 602.76 741.84
  L 610.69 764.30
  A 0.38 0.38 0.0 0 1 610.33 764.81
  L 594.88 764.72
  A 0.38 0.38 0.0 0 1 594.52 764.22
  Z"
/>
<path fill="#ffffff" d="
  M 704.50 764.61
  L 712.13 741.84
  A 0.47 0.47 0.0 0 1 713.02 741.83
  L 720.88 764.53
  A 0.47 0.47 0.0 0 1 720.44 765.15
  L 704.94 765.23
  A 0.47 0.47 0.0 0 1 704.50 764.61
  Z"
/>
<path fill="#ffffff" d="
  M 306.18 764.10
  L 313.32 742.16
  A 0.47 0.47 0.0 0 1 314.20 742.15
  L 322.21 764.35
  A 0.47 0.47 0.0 0 1 321.76 764.98
  L 306.62 764.71
  A 0.47 0.47 0.0 0 1 306.18 764.10
  Z"
/>
</svg>
