<?xml version="1.0" encoding="UTF-8" standalone="no"?>
<!DOCTYPE svg PUBLIC "-//W3C//DTD SVG 1.1//EN" "http://www.w3.org/Graphics/SVG/1.1/DTD/svg11.dtd">
<svg xmlns="http://www.w3.org/2000/svg" version="1.1" viewBox="0.00 0.00 1024.00 1024.00">
<g stroke-width="2.00" fill="none" stroke-linecap="butt">
<path stroke="#f9aa94" vector-effect="non-scaling-stroke" d="
  M 507.85 436.84
  Q 485.06 460.24 462.31 483.22
  Q 458.79 486.77 455.38 489.96
  C 450.03 494.98 444.71 499.56 445.84 506.85
  C 447.11 515.05 455.88 520.14 463.56 517.14
  C 465.90 516.23 468.11 513.84 469.99 512.02
  Q 498.04 484.91 525.37 456.70"
/>
<path stroke="#fddc93" vector-effect="non-scaling-stroke" d="
  M 525.37 456.70
  Q 546.32 435.30 567.68 413.92
  Q 571.03 410.57 572.58 408.06
  C 576.55 401.61 574.95 391.34 567.19 388.23
  Q 560.02 385.34 554.65 390.38
  Q 530.44 413.08 507.85 436.84"
/>
<path stroke="#f78727" vector-effect="non-scaling-stroke" d="
  M 525.37 456.70
  Q 522.40 457.30 521.14 455.60
  Q 519.65 453.60 518.65 451.87
  Q 516.74 448.55 516.38 448.01
  Q 514.84 445.73 513.29 443.47
  Q 512.74 442.66 511.40 439.66
  Q 510.17 436.90 507.85 436.84"
/>
<path stroke="#f9aa94" vector-effect="non-scaling-stroke" d="
  M 463.03 468.68
  C 466.72 468.43 469.97 465.94 472.57 463.43
  Q 487.84 448.73 502.53 434.00
  C 507.61 428.90 505.87 419.90 501.30 415.44
  Q 496.79 411.01 490.60 412.05
  C 486.82 412.69 483.52 415.94 480.88 418.65
  Q 467.78 432.10 453.61 447.08
  Q 446.66 454.44 451.77 462.70
  Q 455.78 469.18 463.03 468.68"
/>
<path stroke="#fcc493" vector-effect="non-scaling-stroke" d="
  M 543.95 446.50
  Q 531.10 459.14 513.78 477.26
  C 509.70 481.52 508.27 486.63 511.12 492.31
  C 513.62 497.28 518.44 500.50 524.07 499.94
  C 527.66 499.59 530.94 497.37 533.32 495.09
  Q 545.52 483.38 559.03 468.28"
/>
<path stroke="#fddc93" vector-effect="non-scaling-stroke" d="
  M 559.03 468.28
  L 572.10 454.51
  Q 573.70 452.83 575.59 454.18
  L 578.87 456.52
  Q 580.67 457.81 579.09 459.35
  L 557.26 480.64"
/>
<path stroke="#fcc493" vector-effect="non-scaling-stroke" d="
  M 557.26 480.64
  Q 550.29 487.48 543.22 494.22
  Q 538.86 498.37 537.85 500.68
  C 534.93 507.35 540.51 515.18 546.72 517.58
  Q 553.10 520.05 558.53 515.78
  Q 564.41 511.15 569.52 505.50"
/>
<path stroke="#fddc93" vector-effect="non-scaling-stroke" d="
  M 569.52 505.50
  Q 580.10 494.63 591.11 484.12
  C 594.16 481.21 599.59 476.03 600.00 471.85
  Q 601.04 461.35 591.98 456.36
  C 588.90 454.66 585.49 454.41 583.11 451.43
  Q 580.92 448.67 579.01 445.41
  Q 575.94 440.19 571.31 435.30
  Q 563.72 427.28 555.48 434.71
  Q 552.61 437.30 543.95 446.50"
/>
<path stroke="#faa127" vector-effect="non-scaling-stroke" d="
  M 569.52 505.50
  Q 568.78 505.41 568.14 506.40
  Q 568.04 506.17 568.62 505.69
  A 0.27 0.27 0.0 0 0 568.69 505.35
  Q 566.58 501.66 563.59 498.21
  Q 563.48 498.08 563.35 498.19
  Q 563.26 498.28 563.14 498.35
  Q 562.53 498.69 562.80 498.05
  Q 562.96 497.68 562.68 497.30
  Q 561.04 495.09 559.28 492.98
  Q 559.08 492.73 559.10 492.42
  Q 559.11 492.26 559.19 492.13
  Q 559.42 491.81 559.12 491.55
  Q 557.08 489.84 555.79 487.45
  Q 555.54 486.99 555.65 486.49
  Q 555.77 485.89 555.33 485.51
  Q 555.06 485.27 555.29 485.00
  Q 556.68 483.36 558.33 482.28
  Q 558.75 482.00 558.55 481.54
  Q 558.27 480.87 557.26 480.64"
/>
<path stroke="#faa127" vector-effect="non-scaling-stroke" d="
  M 559.03 468.28
  Q 557.70 468.10 557.60 467.33
  Q 557.54 466.93 557.20 466.71
  Q 557.02 466.59 556.89 466.40
  Q 552.19 459.89 548.64 454.28
  Q 547.85 453.02 547.25 451.52
  Q 546.58 449.86 545.35 448.30
  Q 545.21 448.12 544.98 448.12
  L 544.53 448.12
  Q 543.97 448.12 543.89 447.57
  Q 543.81 447.04 543.95 446.50"
/>
<path stroke="#9e8ea8" vector-effect="non-scaling-stroke" d="
  M 624.12 584.47
  C 621.06 584.18 619.99 579.32 619.35 577.01
  A 1.03 1.02 -5.5 0 0 618.43 576.26
  L 610.06 575.78
  A 0.99 0.99 0.0 0 0 609.03 576.60
  C 608.20 581.79 612.11 587.93 616.81 590.24
  C 626.15 594.85 642.87 593.97 644.95 581.14
  C 646.04 574.42 642.54 568.51 636.19 565.70
  Q 631.45 563.60 626.33 561.55
  Q 621.47 559.60 621.10 555.27
  Q 620.68 550.53 625.56 549.50
  C 628.75 548.82 633.00 549.37 633.69 553.14
  Q 634.03 554.98 634.27 556.77
  A 0.72 0.71 -3.2 0 0 634.97 557.39
  L 645.26 557.69
  Q 645.92 557.71 645.77 557.06
  C 644.53 551.55 641.36 544.96 635.74 542.93
  C 627.63 540.00 615.73 541.41 611.70 549.99
  C 607.98 557.91 613.19 565.78 620.73 569.10
  Q 625.33 571.12 629.72 572.77
  C 633.78 574.29 637.02 579.25 633.11 582.73
  Q 630.47 585.09 624.12 584.47"
/>
<path stroke="#9e8ea8" vector-effect="non-scaling-stroke" d="
  M 315.5874 542.4914
  A 0.52 0.52 0.0 0 0 315.0665 541.9723
  L 306.2065 541.9878
  A 0.52 0.52 0.0 0 0 305.6875 542.5087
  L 305.7726 591.2686
  A 0.52 0.52 0.0 0 0 306.2935 591.7877
  L 315.1535 591.7722
  A 0.52 0.52 0.0 0 0 315.6725 591.2513
  L 315.5874 542.4914"
/>
<path stroke="#9e8ea8" vector-effect="non-scaling-stroke" d="
  M 334.60 562.40
  A 0.57 0.57 0.0 0 1 334.03 561.83
  L 333.99 542.81
  A 0.57 0.57 0.0 0 0 333.44 542.24
  L 324.77 542.02
  A 0.57 0.57 0.0 0 0 324.19 542.59
  L 324.24 591.13
  A 0.57 0.57 0.0 0 0 324.81 591.70
  L 333.68 591.72
  A 0.57 0.57 0.0 0 0 334.25 591.15
  L 334.19 571.19
  A 0.57 0.57 0.0 0 1 334.76 570.62
  L 351.57 570.72
  A 0.57 0.57 0.0 0 1 352.13 571.29
  L 351.94 591.28
  A 0.57 0.57 0.0 0 0 352.51 591.85
  L 361.30 591.74
  A 0.57 0.57 0.0 0 0 361.86 591.17
  L 362.09 542.60
  A 0.57 0.57 0.0 0 0 361.52 542.03
  L 352.75 542.02
  A 0.57 0.57 0.0 0 0 352.18 542.58
  L 351.95 561.77
  A 0.57 0.57 0.0 0 1 351.38 562.33
  L 334.60 562.40"
/>
<path stroke="#9e8ea8" vector-effect="non-scaling-stroke" d="
  M 678.80 581.70
  L 682.71 591.25
  Q 682.74 591.33 682.83 591.35
  Q 684.38 591.56 693.05 591.21
  Q 693.09 591.21 693.08 591.17
  L 675.24 542.75
  Q 674.99 542.07 674.27 542.08
  L 665.76 542.25
  A 0.90 0.90 0.0 0 0 664.92 542.90
  Q 663.71 547.13 662.12 551.17
  Q 654.26 571.14 648.13 590.94
  Q 647.75 592.18 649.05 592.20
  L 656.51 592.33
  Q 657.80 592.35 658.15 591.11
  L 660.87 581.69
  Q 661.06 581.01 661.77 581.01
  L 677.47 580.82
  A 1.43 1.42 78.4 0 1 678.80 581.70"
/>
<path stroke="#9e8ea8" vector-effect="non-scaling-stroke" d="
  M 697.86 542.47
  L 697.78 591.21
  A 0.46 0.46 0.0 0 0 698.24 591.67
  L 711.66 591.69
  A 22.88 22.85 0.1 0 0 734.58 568.88
  L 734.58 564.92
  A 22.88 22.85 0.1 0 0 711.74 542.03
  L 698.32 542.01
  A 0.46 0.46 0.0 0 0 697.86 542.47"
/>
<path stroke="#9e8ea8" vector-effect="non-scaling-stroke" d="
  M 375.91 591.70
  A 0.48 0.48 0.0 0 0 376.35 591.39
  L 379.79 581.92
  A 0.48 0.48 0.0 0 1 380.23 581.61
  L 397.11 581.44
  A 0.48 0.48 0.0 0 1 397.56 581.77
  L 400.94 591.42
  A 0.48 0.48 0.0 0 0 401.39 591.75
  L 410.72 591.64
  A 0.48 0.48 0.0 0 0 411.17 591.00
  L 393.97 542.59
  A 0.48 0.48 0.0 0 0 393.51 542.28
  L 384.36 542.41
  A 0.48 0.48 0.0 0 0 383.92 542.73
  L 366.07 591.12
  A 0.48 0.48 0.0 0 0 366.52 591.77
  L 375.91 591.70"
/>
<path stroke="#9e8ea8" vector-effect="non-scaling-stroke" d="
  M 442.89 572.48
  A 0.33 0.33 0.0 0 1 442.92 571.93
  C 449.53 568.26 453.53 562.89 451.85 554.96
  C 449.70 544.83 440.70 542.04 431.25 542.20
  Q 423.60 542.33 416.75 542.20
  Q 416.19 542.19 416.19 542.75
  L 416.27 591.26
  Q 416.27 591.74 416.76 591.74
  L 425.98 591.72
  A 0.45 0.45 0.0 0 0 426.43 591.27
  L 426.46 574.27
  A 0.68 0.68 0.0 0 1 427.23 573.60
  C 430.57 574.04 433.15 573.42 435.02 576.84
  Q 438.94 583.99 442.49 591.11
  A 1.24 1.22 76.7 0 0 443.57 591.79
  L 454.22 592.02
  A 0.28 0.28 0.0 0 0 454.47 591.60
  Q 449.87 583.61 445.69 575.67
  Q 444.69 573.78 442.89 572.48"
/>
<path stroke="#9e8ea8" vector-effect="non-scaling-stroke" d="
  M 469.5926 542.7489
  A 0.43 0.43 0.0 0 0 469.1633 542.3182
  L 459.8434 542.3019
  A 0.43 0.43 0.0 0 0 459.4126 542.7312
  L 459.3274 591.5511
  A 0.43 0.43 0.0 0 0 459.7567 591.9818
  L 469.0766 591.9981
  A 0.43 0.43 0.0 0 0 469.5074 591.5688
  L 469.5926 542.7489"
/>
<path stroke="#9e8ea8" vector-effect="non-scaling-stroke" d="
  M 489.28 574.32
  Q 495.20 574.90 500.23 574.32
  C 506.86 573.55 513.83 569.09 514.88 562.04
  C 516.61 550.35 509.04 542.52 497.59 542.33
  Q 488.87 542.19 479.13 542.30
  A 0.28 0.28 0.0 0 0 478.85 542.58
  L 478.86 590.79
  Q 478.86 591.72 479.79 591.73
  L 487.58 591.76
  Q 488.43 591.77 488.44 590.92
  L 488.53 574.99
  Q 488.54 574.24 489.28 574.32"
/>
<path stroke="#9e8ea8" vector-effect="non-scaling-stroke" d="
  M 592.64 581.75
  A 0.47 0.47 0.0 0 1 593.08 582.04
  L 596.94 591.57
  A 0.47 0.47 0.0 0 0 597.37 591.86
  L 606.88 592.12
  A 0.47 0.47 0.0 0 0 607.34 591.48
  L 588.51 542.68
  A 0.47 0.47 0.0 0 0 588.08 542.38
  L 579.09 542.29
  A 0.47 0.47 0.0 0 0 578.64 542.60
  L 560.24 591.17
  A 0.47 0.47 0.0 0 0 560.69 591.80
  L 570.77 591.71
  A 0.47 0.47 0.0 0 0 571.22 591.37
  L 573.89 582.09
  A 0.47 0.47 0.0 0 1 574.34 581.75
  L 592.64 581.75"
/>
<path stroke="#9e8ea8" vector-effect="non-scaling-stroke" d="
  M 532.34 573.79
  L 538.40 573.92
  A 1.88 1.86 -11.3 0 1 540.06 575.02
  Q 543.47 582.68 548.28 591.63
  Q 548.33 591.71 548.43 591.73
  Q 551.18 592.12 558.69 591.99
  Q 558.77 591.99 558.73 591.92
  L 549.18 572.63
  Q 548.83 571.91 549.50 571.48
  C 552.97 569.28 555.62 566.31 556.36 562.18
  C 558.37 551.06 551.35 543.18 540.57 542.73
  Q 531.62 542.35 522.12 542.60
  Q 521.49 542.61 521.50 543.24
  L 521.91 591.49
  A 0.40 0.40 0.0 0 0 522.31 591.89
  L 531.28 591.70
  Q 531.51 591.70 531.51 591.47
  L 531.45 574.66
  A 0.87 0.87 0.0 0 1 532.34 573.79"
/>
<path stroke="#9e8ea8" vector-effect="non-scaling-stroke" d="
  M 537.5228 628.6934
  A 14.92 12.24 87.3 0 0 549.0464 613.2134
  A 14.92 12.24 87.3 0 0 536.1172 598.8866
  A 14.92 12.24 87.3 0 0 524.5936 614.3666
  A 14.92 12.24 87.3 0 0 537.5228 628.6934"
/>
<path stroke="#9e8ea8" vector-effect="non-scaling-stroke" d="
  M 383.65 599.90
  L 383.45 627.44
  A 0.45 0.45 0.0 0 0 383.90 627.89
  L 391.42 627.94
  A 13.06 13.05 -89.6 0 0 404.56 614.97
  L 404.58 612.65
  A 13.06 13.05 -89.6 0 0 391.62 599.50
  L 384.10 599.45
  A 0.45 0.45 0.0 0 0 383.65 599.90"
/>
<path stroke="#9e8ea8" vector-effect="non-scaling-stroke" d="
  M 563.94 617.55
  Q 565.96 617.46 568.02 617.39
  C 573.24 617.23 579.64 614.85 580.17 608.94
  C 581.20 597.55 565.83 599.24 559.20 599.32
  Q 558.53 599.33 558.53 599.99
  L 558.46 627.26
  Q 558.46 628.16 559.36 628.14
  L 562.47 628.06
  Q 563.23 628.04 563.23 627.28
  L 563.21 618.32
  Q 563.21 617.59 563.94 617.55"
/>
<path stroke="#9e8ea8" vector-effect="non-scaling-stroke" d="
  M 593.92 603.89
  A 0.75 0.75 0.0 0 1 594.66 603.14
  L 606.83 603.08
  A 0.75 0.75 0.0 0 0 607.55 602.56
  L 608.30 600.19
  A 0.75 0.75 0.0 0 0 607.58 599.21
  L 589.97 599.30
  A 0.75 0.75 0.0 0 0 589.22 600.04
  L 588.95 627.49
  A 0.75 0.75 0.0 0 0 589.69 628.25
  L 606.41 628.36
  A 0.75 0.75 0.0 0 0 607.17 627.61
  L 607.15 625.32
  A 0.75 0.75 0.0 0 0 606.41 624.57
  L 594.24 624.43
  A 0.75 0.75 0.0 0 1 593.50 623.67
  L 593.56 615.97
  A 0.75 0.75 0.0 0 1 594.31 615.23
  L 603.70 615.17
  A 0.75 0.75 0.0 0 0 604.44 614.33
  L 604.23 612.73
  A 0.75 0.75 0.0 0 0 603.49 612.07
  L 594.71 612.00
  A 0.75 0.75 0.0 0 1 593.96 611.25
  L 593.92 603.89"
/>
<path stroke="#9e8ea8" vector-effect="non-scaling-stroke" d="
  M 418.90 604.26
  A 0.65 0.65 0.0 0 1 419.55 603.60
  L 433.88 603.49
  A 0.65 0.65 0.0 0 0 434.52 602.89
  L 434.71 600.41
  A 0.65 0.65 0.0 0 0 434.06 599.71
  L 414.97 599.77
  A 0.65 0.65 0.0 0 0 414.32 600.42
  L 414.31 627.68
  A 0.65 0.65 0.0 0 0 414.96 628.33
  L 432.65 628.25
  A 0.65 0.65 0.0 0 0 433.29 627.68
  L 433.55 625.68
  A 0.65 0.65 0.0 0 0 432.91 624.95
  L 419.41 624.85
  A 0.65 0.65 0.0 0 1 418.76 624.20
  L 418.81 615.79
  A 0.65 0.65 0.0 0 1 419.45 615.14
  L 431.01 614.95
  A 0.65 0.65 0.0 0 0 431.64 614.24
  L 431.45 612.22
  A 0.65 0.65 0.0 0 0 430.81 611.63
  L 419.65 611.47
  A 0.65 0.65 0.0 0 1 419.01 610.83
  L 418.90 604.26"
/>
<path stroke="#9e8ea8" vector-effect="non-scaling-stroke" d="
  M 451.93 619.60
  Q 451.36 621.23 450.85 619.59
  L 444.73 600.01
  Q 444.58 599.53 444.08 599.53
  L 440.19 599.50
  Q 439.60 599.49 439.78 600.06
  Q 444.38 614.48 448.97 626.35
  Q 449.67 628.17 451.58 628.65
  Q 452.89 628.98 453.36 627.71
  L 463.53 600.23
  A 0.58 0.58 0.0 0 0 462.98 599.45
  L 459.73 599.48
  Q 458.97 599.48 458.72 600.20
  L 451.93 619.60"
/>
<path stroke="#9e8ea8" vector-effect="non-scaling-stroke" d="
  M 633.05 616.61
  C 639.63 611.88 639.59 600.45 629.88 599.64
  Q 624.22 599.16 617.73 599.55
  Q 617.11 599.59 617.11 600.21
  L 616.97 627.49
  Q 616.97 628.27 617.74 628.27
  L 621.18 628.28
  Q 621.89 628.28 621.89 627.57
  L 621.90 618.30
  Q 621.90 617.66 622.52 617.49
  C 625.03 616.82 627.57 617.02 628.88 619.37
  Q 631.39 623.90 633.94 627.37
  Q 634.78 628.51 636.18 628.28
  L 637.79 628.01
  Q 639.18 627.77 638.43 626.59
  L 632.82 617.81
  Q 632.37 617.10 633.05 616.61"
/>
<path stroke="#9e8ea8" vector-effect="non-scaling-stroke" d="
  M 477.07 611.94
  A 0.75 0.75 0.0 0 1 476.33 611.19
  L 476.28 604.08
  A 0.75 0.75 0.0 0 1 477.03 603.32
  L 490.34 603.16
  A 0.75 0.75 0.0 0 0 491.07 602.48
  L 491.24 600.65
  A 0.75 0.75 0.0 0 0 490.50 599.83
  L 472.60 599.72
  A 0.75 0.75 0.0 0 0 471.85 600.47
  L 471.85 627.41
  A 0.75 0.75 0.0 0 0 472.62 628.16
  L 489.60 627.80
  A 0.75 0.75 0.0 0 0 490.34 627.09
  L 490.43 625.38
  A 0.75 0.75 0.0 0 0 489.70 624.59
  L 476.85 624.26
  A 0.75 0.75 0.0 0 1 476.12 623.51
  L 476.14 616.44
  A 0.75 0.75 0.0 0 1 476.85 615.70
  L 488.34 615.17
  A 0.75 0.75 0.0 0 0 489.05 614.48
  L 489.19 612.84
  A 0.75 0.75 0.0 0 0 488.45 612.02
  L 477.07 611.94"
/>
<path stroke="#9e8ea8" vector-effect="non-scaling-stroke" d="
  M 517.63 625.04
  A 0.77 0.77 0.0 0 0 516.86 624.24
  L 506.14 624.28
  A 0.77 0.77 0.0 0 1 505.36 623.50
  L 505.47 601.15
  A 0.77 0.77 0.0 0 0 504.69 600.38
  L 501.66 600.39
  A 0.77 0.77 0.0 0 0 500.90 601.16
  L 500.81 627.22
  A 0.77 0.77 0.0 0 0 501.58 627.99
  L 516.78 627.98
  A 0.77 0.77 0.0 0 0 517.55 627.24
  L 517.63 625.04"
/>
<path stroke="#9e8ea8" vector-effect="non-scaling-stroke" d="
  M 664.02 572.27
  A 0.53 0.53 0.0 0 0 664.51 572.97
  L 675.88 573.03
  A 0.53 0.53 0.0 0 0 676.38 572.33
  L 670.79 555.76
  A 0.53 0.53 0.0 0 0 669.79 555.76
  L 664.02 572.27"
/>
<path stroke="#9e8ea8" vector-effect="non-scaling-stroke" d="
  M 708.02 550.38
  L 707.90 583.02
  A 0.34 0.34 0.0 0 0 708.24 583.36
  L 711.34 583.37
  A 13.28 13.10 -89.8 0 0 724.49 570.14
  L 724.51 563.38
  A 13.28 13.10 -89.8 0 0 711.46 550.05
  L 708.36 550.04
  A 0.34 0.34 0.0 0 0 708.02 550.38"
/>
<path stroke="#9e8ea8" vector-effect="non-scaling-stroke" d="
  M 382.81 572.25
  A 0.70 0.70 0.0 0 0 383.47 573.18
  L 393.93 573.23
  A 0.70 0.70 0.0 0 0 394.60 572.31
  L 389.45 556.88
  A 0.70 0.70 0.0 0 0 388.12 556.87
  L 382.81 572.25"
/>
<path stroke="#9e8ea8" vector-effect="non-scaling-stroke" d="
  M 426.35 550.89
  L 426.33 566.05
  A 0.48 0.48 0.0 0 0 426.81 566.53
  L 432.41 566.54
  A 9.34 7.38 0.1 0 0 441.76 559.17
  L 441.76 557.81
  A 9.34 7.38 0.1 0 0 432.43 550.42
  L 426.83 550.41
  A 0.48 0.48 0.0 0 0 426.35 550.89"
/>
<path stroke="#9e8ea8" vector-effect="non-scaling-stroke" d="
  M 488.53 551.27
  L 488.51 565.73
  A 0.90 0.90 0.0 0 0 489.41 566.63
  L 496.31 566.64
  A 8.46 7.17 0.1 0 0 504.78 559.48
  L 504.78 557.56
  A 8.46 7.17 0.1 0 0 496.33 550.38
  L 489.43 550.37
  A 0.90 0.90 0.0 0 0 488.53 551.27"
/>
<path stroke="#9e8ea8" vector-effect="non-scaling-stroke" d="
  M 577.10 572.99
  A 0.57 0.57 0.0 0 0 577.64 573.75
  L 589.80 573.77
  A 0.57 0.57 0.0 0 0 590.34 573.01
  L 584.29 555.62
  A 0.57 0.57 0.0 0 0 583.21 555.62
  L 577.10 572.99"
/>
<path stroke="#9e8ea8" vector-effect="non-scaling-stroke" d="
  M 531.21 551.32
  L 531.25 565.02
  A 0.76 0.76 0.0 0 0 532.02 565.77
  L 539.87 565.75
  A 7.06 7.05 89.8 0 0 546.89 558.66
  L 546.89 557.56
  A 7.06 7.05 89.8 0 0 539.81 550.53
  L 531.96 550.55
  A 0.76 0.76 0.0 0 0 531.21 551.32"
/>
<path stroke="#9e8ea8" vector-effect="non-scaling-stroke" d="
  M 537.2380 624.6747
  A 10.76 7.36 88.2 0 0 544.2564 613.6888
  A 10.76 7.36 88.2 0 0 536.5620 603.1653
  A 10.76 7.36 88.2 0 0 529.5436 614.1512
  A 10.76 7.36 88.2 0 0 537.2380 624.6747"
/>
<path stroke="#9e8ea8" vector-effect="non-scaling-stroke" d="
  M 387.62 604.30
  L 387.82 623.18
  A 1.21 1.21 0.0 0 0 389.04 624.38
  L 391.00 624.36
  A 9.20 8.89 89.4 0 0 399.79 615.07
  L 399.76 612.17
  A 9.20 8.89 89.4 0 0 390.78 603.06
  L 388.82 603.08
  A 1.21 1.21 0.0 0 0 387.62 604.30"
/>
<path stroke="#9e8ea8" vector-effect="non-scaling-stroke" d="
  M 563.04 604.52
  L 563.04 612.20
  A 1.06 1.06 0.0 0 0 564.10 613.26
  L 568.24 613.26
  A 7.14 4.62 -0.0 0 0 575.38 608.64
  L 575.38 608.08
  A 7.14 4.62 0.0 0 0 568.24 603.46
  L 564.10 603.46
  A 1.06 1.06 0.0 0 0 563.04 604.52"
/>
<path stroke="#9e8ea8" vector-effect="non-scaling-stroke" d="
  M 621.76 604.78
  L 621.74 612.34
  A 1.18 1.18 0.0 0 0 622.91 613.52
  L 628.88 613.55
  A 4.28 4.17 -89.8 0 0 633.07 609.28
  L 633.07 607.92
  A 4.28 4.17 -89.8 0 0 628.92 603.63
  L 622.95 603.60
  A 1.18 1.18 0.0 0 0 621.76 604.78"
/>
</g>
<path fill="#ffffff" d="
  M 0.00 0.00
  L 1024.00 0.00
  L 1024.00 1024.00
  L 0.00 1024.00
  L 0.00 0.00
  Z
  M 507.85 436.84
  Q 485.06 460.24 462.31 483.22
  Q 458.79 486.77 455.38 489.96
  C 450.03 494.98 444.71 499.56 445.84 506.85
  C 447.11 515.05 455.88 520.14 463.56 517.14
  C 465.90 516.23 468.11 513.84 469.99 512.02
  Q 498.04 484.91 525.37 456.70
  Q 546.32 435.30 567.68 413.92
  Q 571.03 410.57 572.58 408.06
  C 576.55 401.61 574.95 391.34 567.19 388.23
  Q 560.02 385.34 554.65 390.38
  Q 530.44 413.08 507.85 436.84
  Z
  M 463.03 468.68
  C 466.72 468.43 469.97 465.94 472.57 463.43
  Q 487.84 448.73 502.53 434.00
  C 507.61 428.90 505.87 419.90 501.30 415.44
  Q 496.79 411.01 490.60 412.05
  C 486.82 412.69 483.52 415.94 480.88 418.65
  Q 467.78 432.10 453.61 447.08
  Q 446.66 454.44 451.77 462.70
  Q 455.78 469.18 463.03 468.68
  Z
  M 543.95 446.50
  Q 531.10 459.14 513.78 477.26
  C 509.70 481.52 508.27 486.63 511.12 492.31
  C 513.62 497.28 518.44 500.50 524.07 499.94
  C 527.66 499.59 530.94 497.37 533.32 495.09
  Q 545.52 483.38 559.03 468.28
  L 572.10 454.51
  Q 573.70 452.83 575.59 454.18
  L 578.87 456.52
  Q 580.67 457.81 579.09 459.35
  L 557.26 480.64
  Q 550.29 487.48 543.22 494.22
  Q 538.86 498.37 537.85 500.68
  C 534.93 507.35 540.51 515.18 546.72 517.58
  Q 553.10 520.05 558.53 515.78
  Q 564.41 511.15 569.52 505.50
  Q 580.10 494.63 591.11 484.12
  C 594.16 481.21 599.59 476.03 600.00 471.85
  Q 601.04 461.35 591.98 456.36
  C 588.90 454.66 585.49 454.41 583.11 451.43
  Q 580.92 448.67 579.01 445.41
  Q 575.94 440.19 571.31 435.30
  Q 563.72 427.28 555.48 434.71
  Q 552.61 437.30 543.95 446.50
  Z
  M 624.12 584.47
  C 621.06 584.18 619.99 579.32 619.35 577.01
  A 1.03 1.02 -5.5 0 0 618.43 576.26
  L 610.06 575.78
  A 0.99 0.99 0.0 0 0 609.03 576.60
  C 608.20 581.79 612.11 587.93 616.81 590.24
  C 626.15 594.85 642.87 593.97 644.95 581.14
  C 646.04 574.42 642.54 568.51 636.19 565.70
  Q 631.45 563.60 626.33 561.55
  Q 621.47 559.60 621.10 555.27
  Q 620.68 550.53 625.56 549.50
  C 628.75 548.82 633.00 549.37 633.69 553.14
  Q 634.03 554.98 634.27 556.77
  A 0.72 0.71 -3.2 0 0 634.97 557.39
  L 645.26 557.69
  Q 645.92 557.71 645.77 557.06
  C 644.53 551.55 641.36 544.96 635.74 542.93
  C 627.63 540.00 615.73 541.41 611.70 549.99
  C 607.98 557.91 613.19 565.78 620.73 569.10
  Q 625.33 571.12 629.72 572.77
  C 633.78 574.29 637.02 579.25 633.11 582.73
  Q 630.47 585.09 624.12 584.47
  Z
  M 315.5874 542.4914
  A 0.52 0.52 0.0 0 0 315.0665 541.9723
  L 306.2065 541.9878
  A 0.52 0.52 0.0 0 0 305.6875 542.5087
  L 305.7726 591.2686
  A 0.52 0.52 0.0 0 0 306.2935 591.7877
  L 315.1535 591.7722
  A 0.52 0.52 0.0 0 0 315.6725 591.2513
  L 315.5874 542.4914
  Z
  M 334.60 562.40
  A 0.57 0.57 0.0 0 1 334.03 561.83
  L 333.99 542.81
  A 0.57 0.57 0.0 0 0 333.44 542.24
  L 324.77 542.02
  A 0.57 0.57 0.0 0 0 324.19 542.59
  L 324.24 591.13
  A 0.57 0.57 0.0 0 0 324.81 591.70
  L 333.68 591.72
  A 0.57 0.57 0.0 0 0 334.25 591.15
  L 334.19 571.19
  A 0.57 0.57 0.0 0 1 334.76 570.62
  L 351.57 570.72
  A 0.57 0.57 0.0 0 1 352.13 571.29
  L 351.94 591.28
  A 0.57 0.57 0.0 0 0 352.51 591.85
  L 361.30 591.74
  A 0.57 0.57 0.0 0 0 361.86 591.17
  L 362.09 542.60
  A 0.57 0.57 0.0 0 0 361.52 542.03
  L 352.75 542.02
  A 0.57 0.57 0.0 0 0 352.18 542.58
  L 351.95 561.77
  A 0.57 0.57 0.0 0 1 351.38 562.33
  L 334.60 562.40
  Z
  M 678.80 581.70
  L 682.71 591.25
  Q 682.74 591.33 682.83 591.35
  Q 684.38 591.56 693.05 591.21
  Q 693.09 591.21 693.08 591.17
  L 675.24 542.75
  Q 674.99 542.07 674.27 542.08
  L 665.76 542.25
  A 0.90 0.90 0.0 0 0 664.92 542.90
  Q 663.71 547.13 662.12 551.17
  Q 654.26 571.14 648.13 590.94
  Q 647.75 592.18 649.05 592.20
  L 656.51 592.33
  Q 657.80 592.35 658.15 591.11
  L 660.87 581.69
  Q 661.06 581.01 661.77 581.01
  L 677.47 580.82
  A 1.43 1.42 78.4 0 1 678.80 581.70
  Z
  M 697.86 542.47
  L 697.78 591.21
  A 0.46 0.46 0.0 0 0 698.24 591.67
  L 711.66 591.69
  A 22.88 22.85 0.1 0 0 734.58 568.88
  L 734.58 564.92
  A 22.88 22.85 0.1 0 0 711.74 542.03
  L 698.32 542.01
  A 0.46 0.46 0.0 0 0 697.86 542.47
  Z
  M 375.91 591.70
  A 0.48 0.48 0.0 0 0 376.35 591.39
  L 379.79 581.92
  A 0.48 0.48 0.0 0 1 380.23 581.61
  L 397.11 581.44
  A 0.48 0.48 0.0 0 1 397.56 581.77
  L 400.94 591.42
  A 0.48 0.48 0.0 0 0 401.39 591.75
  L 410.72 591.64
  A 0.48 0.48 0.0 0 0 411.17 591.00
  L 393.97 542.59
  A 0.48 0.48 0.0 0 0 393.51 542.28
  L 384.36 542.41
  A 0.48 0.48 0.0 0 0 383.92 542.73
  L 366.07 591.12
  A 0.48 0.48 0.0 0 0 366.52 591.77
  L 375.91 591.70
  Z
  M 442.89 572.48
  A 0.33 0.33 0.0 0 1 442.92 571.93
  C 449.53 568.26 453.53 562.89 451.85 554.96
  C 449.70 544.83 440.70 542.04 431.25 542.20
  Q 423.60 542.33 416.75 542.20
  Q 416.19 542.19 416.19 542.75
  L 416.27 591.26
  Q 416.27 591.74 416.76 591.74
  L 425.98 591.72
  A 0.45 0.45 0.0 0 0 426.43 591.27
  L 426.46 574.27
  A 0.68 0.68 0.0 0 1 427.23 573.60
  C 430.57 574.04 433.15 573.42 435.02 576.84
  Q 438.94 583.99 442.49 591.11
  A 1.24 1.22 76.7 0 0 443.57 591.79
  L 454.22 592.02
  A 0.28 0.28 0.0 0 0 454.47 591.60
  Q 449.87 583.61 445.69 575.67
  Q 444.69 573.78 442.89 572.48
  Z
  M 469.5926 542.7489
  A 0.43 0.43 0.0 0 0 469.1633 542.3182
  L 459.8434 542.3019
  A 0.43 0.43 0.0 0 0 459.4126 542.7312
  L 459.3274 591.5511
  A 0.43 0.43 0.0 0 0 459.7567 591.9818
  L 469.0766 591.9981
  A 0.43 0.43 0.0 0 0 469.5074 591.5688
  L 469.5926 542.7489
  Z
  M 489.28 574.32
  Q 495.20 574.90 500.23 574.32
  C 506.86 573.55 513.83 569.09 514.88 562.04
  C 516.61 550.35 509.04 542.52 497.59 542.33
  Q 488.87 542.19 479.13 542.30
  A 0.28 0.28 0.0 0 0 478.85 542.58
  L 478.86 590.79
  Q 478.86 591.72 479.79 591.73
  L 487.58 591.76
  Q 488.43 591.77 488.44 590.92
  L 488.53 574.99
  Q 488.54 574.24 489.28 574.32
  Z
  M 592.64 581.75
  A 0.47 0.47 0.0 0 1 593.08 582.04
  L 596.94 591.57
  A 0.47 0.47 0.0 0 0 597.37 591.86
  L 606.88 592.12
  A 0.47 0.47 0.0 0 0 607.34 591.48
  L 588.51 542.68
  A 0.47 0.47 0.0 0 0 588.08 542.38
  L 579.09 542.29
  A 0.47 0.47 0.0 0 0 578.64 542.60
  L 560.24 591.17
  A 0.47 0.47 0.0 0 0 560.69 591.80
  L 570.77 591.71
  A 0.47 0.47 0.0 0 0 571.22 591.37
  L 573.89 582.09
  A 0.47 0.47 0.0 0 1 574.34 581.75
  L 592.64 581.75
  Z
  M 532.34 573.79
  L 538.40 573.92
  A 1.88 1.86 -11.3 0 1 540.06 575.02
  Q 543.47 582.68 548.28 591.63
  Q 548.33 591.71 548.43 591.73
  Q 551.18 592.12 558.69 591.99
  Q 558.77 591.99 558.73 591.92
  L 549.18 572.63
  Q 548.83 571.91 549.50 571.48
  C 552.97 569.28 555.62 566.31 556.36 562.18
  C 558.37 551.06 551.35 543.18 540.57 542.73
  Q 531.62 542.35 522.12 542.60
  Q 521.49 542.61 521.50 543.24
  L 521.91 591.49
  A 0.40 0.40 0.0 0 0 522.31 591.89
  L 531.28 591.70
  Q 531.51 591.70 531.51 591.47
  L 531.45 574.66
  A 0.87 0.87 0.0 0 1 532.34 573.79
  Z
  M 537.5228 628.6934
  A 14.92 12.24 87.3 0 0 549.0464 613.2134
  A 14.92 12.24 87.3 0 0 536.1172 598.8866
  A 14.92 12.24 87.3 0 0 524.5936 614.3666
  A 14.92 12.24 87.3 0 0 537.5228 628.6934
  Z
  M 383.65 599.90
  L 383.45 627.44
  A 0.45 0.45 0.0 0 0 383.90 627.89
  L 391.42 627.94
  A 13.06 13.05 -89.6 0 0 404.56 614.97
  L 404.58 612.65
  A 13.06 13.05 -89.6 0 0 391.62 599.50
  L 384.10 599.45
  A 0.45 0.45 0.0 0 0 383.65 599.90
  Z
  M 563.94 617.55
  Q 565.96 617.46 568.02 617.39
  C 573.24 617.23 579.64 614.85 580.17 608.94
  C 581.20 597.55 565.83 599.24 559.20 599.32
  Q 558.53 599.33 558.53 599.99
  L 558.46 627.26
  Q 558.46 628.16 559.36 628.14
  L 562.47 628.06
  Q 563.23 628.04 563.23 627.28
  L 563.21 618.32
  Q 563.21 617.59 563.94 617.55
  Z
  M 593.92 603.89
  A 0.75 0.75 0.0 0 1 594.66 603.14
  L 606.83 603.08
  A 0.75 0.75 0.0 0 0 607.55 602.56
  L 608.30 600.19
  A 0.75 0.75 0.0 0 0 607.58 599.21
  L 589.97 599.30
  A 0.75 0.75 0.0 0 0 589.22 600.04
  L 588.95 627.49
  A 0.75 0.75 0.0 0 0 589.69 628.25
  L 606.41 628.36
  A 0.75 0.75 0.0 0 0 607.17 627.61
  L 607.15 625.32
  A 0.75 0.75 0.0 0 0 606.41 624.57
  L 594.24 624.43
  A 0.75 0.75 0.0 0 1 593.50 623.67
  L 593.56 615.97
  A 0.75 0.75 0.0 0 1 594.31 615.23
  L 603.70 615.17
  A 0.75 0.75 0.0 0 0 604.44 614.33
  L 604.23 612.73
  A 0.75 0.75 0.0 0 0 603.49 612.07
  L 594.71 612.00
  A 0.75 0.75 0.0 0 1 593.96 611.25
  L 593.92 603.89
  Z
  M 418.90 604.26
  A 0.65 0.65 0.0 0 1 419.55 603.60
  L 433.88 603.49
  A 0.65 0.65 0.0 0 0 434.52 602.89
  L 434.71 600.41
  A 0.65 0.65 0.0 0 0 434.06 599.71
  L 414.97 599.77
  A 0.65 0.65 0.0 0 0 414.32 600.42
  L 414.31 627.68
  A 0.65 0.65 0.0 0 0 414.96 628.33
  L 432.65 628.25
  A 0.65 0.65 0.0 0 0 433.29 627.68
  L 433.55 625.68
  A 0.65 0.65 0.0 0 0 432.91 624.95
  L 419.41 624.85
  A 0.65 0.65 0.0 0 1 418.76 624.20
  L 418.81 615.79
  A 0.65 0.65 0.0 0 1 419.45 615.14
  L 431.01 614.95
  A 0.65 0.65 0.0 0 0 431.64 614.24
  L 431.45 612.22
  A 0.65 0.65 0.0 0 0 430.81 611.63
  L 419.65 611.47
  A 0.65 0.65 0.0 0 1 419.01 610.83
  L 418.90 604.26
  Z
  M 451.93 619.60
  Q 451.36 621.23 450.85 619.59
  L 444.73 600.01
  Q 444.58 599.53 444.08 599.53
  L 440.19 599.50
  Q 439.60 599.49 439.78 600.06
  Q 444.38 614.48 448.97 626.35
  Q 449.67 628.17 451.58 628.65
  Q 452.89 628.98 453.36 627.71
  L 463.53 600.23
  A 0.58 0.58 0.0 0 0 462.98 599.45
  L 459.73 599.48
  Q 458.97 599.48 458.72 600.20
  L 451.93 619.60
  Z
  M 633.05 616.61
  C 639.63 611.88 639.59 600.45 629.88 599.64
  Q 624.22 599.16 617.73 599.55
  Q 617.11 599.59 617.11 600.21
  L 616.97 627.49
  Q 616.97 628.27 617.74 628.27
  L 621.18 628.28
  Q 621.89 628.28 621.89 627.57
  L 621.90 618.30
  Q 621.90 617.66 622.52 617.49
  C 625.03 616.82 627.57 617.02 628.88 619.37
  Q 631.39 623.90 633.94 627.37
  Q 634.78 628.51 636.18 628.28
  L 637.79 628.01
  Q 639.18 627.77 638.43 626.59
  L 632.82 617.81
  Q 632.37 617.10 633.05 616.61
  Z
  M 477.07 611.94
  A 0.75 0.75 0.0 0 1 476.33 611.19
  L 476.28 604.08
  A 0.75 0.75 0.0 0 1 477.03 603.32
  L 490.34 603.16
  A 0.75 0.75 0.0 0 0 491.07 602.48
  L 491.24 600.65
  A 0.75 0.75 0.0 0 0 490.50 599.83
  L 472.60 599.72
  A 0.75 0.75 0.0 0 0 471.85 600.47
  L 471.85 627.41
  A 0.75 0.75 0.0 0 0 472.62 628.16
  L 489.60 627.80
  A 0.75 0.75 0.0 0 0 490.34 627.09
  L 490.43 625.38
  A 0.75 0.75 0.0 0 0 489.70 624.59
  L 476.85 624.26
  A 0.75 0.75 0.0 0 1 476.12 623.51
  L 476.14 616.44
  A 0.75 0.75 0.0 0 1 476.85 615.70
  L 488.34 615.17
  A 0.75 0.75 0.0 0 0 489.05 614.48
  L 489.19 612.84
  A 0.75 0.75 0.0 0 0 488.45 612.02
  L 477.07 611.94
  Z
  M 517.63 625.04
  A 0.77 0.77 0.0 0 0 516.86 624.24
  L 506.14 624.28
  A 0.77 0.77 0.0 0 1 505.36 623.50
  L 505.47 601.15
  A 0.77 0.77 0.0 0 0 504.69 600.38
  L 501.66 600.39
  A 0.77 0.77 0.0 0 0 500.90 601.16
  L 500.81 627.22
  A 0.77 0.77 0.0 0 0 501.58 627.99
  L 516.78 627.98
  A 0.77 0.77 0.0 0 0 517.55 627.24
  L 517.63 625.04
  Z"
/>
<path fill="#fbb926" d="
  M 525.37 456.70
  Q 522.40 457.30 521.14 455.60
  Q 519.65 453.60 518.65 451.87
  Q 516.74 448.55 516.38 448.01
  Q 514.84 445.73 513.29 443.47
  Q 512.74 442.66 511.40 439.66
  Q 510.17 436.90 507.85 436.84
  Q 530.44 413.08 554.65 390.38
  Q 560.02 385.34 567.19 388.23
  C 574.95 391.34 576.55 401.61 572.58 408.06
  Q 571.03 410.57 567.68 413.92
  Q 546.32 435.30 525.37 456.70
  Z"
/>
<path fill="#f35428" d="
  M 463.03 468.68
  Q 455.78 469.18 451.77 462.70
  Q 446.66 454.44 453.61 447.08
  Q 467.78 432.10 480.88 418.65
  C 483.52 415.94 486.82 412.69 490.60 412.05
  Q 496.79 411.01 501.30 415.44
  C 505.87 419.90 507.61 428.90 502.53 434.00
  Q 487.84 448.73 472.57 463.43
  C 469.97 465.94 466.72 468.43 463.03 468.68
  Z"
/>
<path fill="#fbb926" d="
  M 569.52 505.50
  Q 568.78 505.41 568.14 506.40
  Q 568.04 506.17 568.62 505.69
  A 0.27 0.27 0.0 0 0 568.69 505.35
  Q 566.58 501.66 563.59 498.21
  Q 563.48 498.08 563.35 498.19
  Q 563.26 498.28 563.14 498.35
  Q 562.53 498.69 562.80 498.05
  Q 562.96 497.68 562.68 497.30
  Q 561.04 495.09 559.28 492.98
  Q 559.08 492.73 559.10 492.42
  Q 559.11 492.26 559.19 492.13
  Q 559.42 491.81 559.12 491.55
  Q 557.08 489.84 555.79 487.45
  Q 555.54 486.99 555.65 486.49
  Q 555.77 485.89 555.33 485.51
  Q 555.06 485.27 555.29 485.00
  Q 556.68 483.36 558.33 482.28
  Q 558.75 482.00 558.55 481.54
  Q 558.27 480.87 557.26 480.64
  L 579.09 459.35
  Q 580.67 457.81 578.87 456.52
  L 575.59 454.18
  Q 573.70 452.83 572.10 454.51
  L 559.03 468.28
  Q 557.70 468.10 557.60 467.33
  Q 557.54 466.93 557.20 466.71
  Q 557.02 466.59 556.89 466.40
  Q 552.19 459.89 548.64 454.28
  Q 547.85 453.02 547.25 451.52
  Q 546.58 449.86 545.35 448.30
  Q 545.21 448.12 544.98 448.12
  L 544.53 448.12
  Q 543.97 448.12 543.89 447.57
  Q 543.81 447.04 543.95 446.50
  Q 552.61 437.30 555.48 434.71
  Q 563.72 427.28 571.31 435.30
  Q 575.94 440.19 579.01 445.41
  Q 580.92 448.67 583.11 451.43
  C 585.49 454.41 588.90 454.66 591.98 456.36
  Q 601.04 461.35 600.00 471.85
  C 599.59 476.03 594.16 481.21 591.11 484.12
  Q 580.10 494.63 569.52 505.50
  Z"
/>
<path fill="#f35428" d="
  M 525.37 456.70
  Q 498.04 484.91 469.99 512.02
  C 468.11 513.84 465.90 516.23 463.56 517.14
  C 455.88 520.14 447.11 515.05 445.84 506.85
  C 444.71 499.56 450.03 494.98 455.38 489.96
  Q 458.79 486.77 462.31 483.22
  Q 485.06 460.24 507.85 436.84
  Q 510.17 436.90 511.40 439.66
  Q 512.74 442.66 513.29 443.47
  Q 514.84 445.73 516.38 448.01
  Q 516.74 448.55 518.65 451.87
  Q 519.65 453.60 521.14 455.60
  Q 522.40 457.30 525.37 456.70
  Z"
/>
<path fill="#f88927" d="
  M 543.95 446.50
  Q 543.81 447.04 543.89 447.57
  Q 543.97 448.12 544.53 448.12
  L 544.98 448.12
  Q 545.21 448.12 545.35 448.30
  Q 546.58 449.86 547.25 451.52
  Q 547.85 453.02 548.64 454.28
  Q 552.19 459.89 556.89 466.40
  Q 557.02 466.59 557.20 466.71
  Q 557.54 466.93 557.60 467.33
  Q 557.70 468.10 559.03 468.28
  Q 545.52 483.38 533.32 495.09
  C 530.94 497.37 527.66 499.59 524.07 499.94
  C 518.44 500.50 513.62 497.28 511.12 492.31
  C 508.27 486.63 509.70 481.52 513.78 477.26
  Q 531.10 459.14 543.95 446.50
  Z"
/>
<path fill="#f88927" d="
  M 557.26 480.64
  Q 558.27 480.87 558.55 481.54
  Q 558.75 482.00 558.33 482.28
  Q 556.68 483.36 555.29 485.00
  Q 555.06 485.27 555.33 485.51
  Q 555.77 485.89 555.65 486.49
  Q 555.54 486.99 555.79 487.45
  Q 557.08 489.84 559.12 491.55
  Q 559.42 491.81 559.19 492.13
  Q 559.11 492.26 559.10 492.42
  Q 559.08 492.73 559.28 492.98
  Q 561.04 495.09 562.68 497.30
  Q 562.96 497.68 562.80 498.05
  Q 562.53 498.69 563.14 498.35
  Q 563.26 498.28 563.35 498.19
  Q 563.48 498.08 563.59 498.21
  Q 566.58 501.66 568.69 505.35
  A 0.27 0.27 0.0 0 1 568.62 505.69
  Q 568.04 506.17 568.14 506.40
  Q 568.78 505.41 569.52 505.50
  Q 564.41 511.15 558.53 515.78
  Q 553.10 520.05 546.72 517.58
  C 540.51 515.18 534.93 507.35 537.85 500.68
  Q 538.86 498.37 543.22 494.22
  Q 550.29 487.48 557.26 480.64
  Z"
/>
<path fill="#3d1d51" d="
  M 624.12 584.47
  Q 630.47 585.09 633.11 582.73
  C 637.02 579.25 633.78 574.29 629.72 572.77
  Q 625.33 571.12 620.73 569.10
  C 613.19 565.78 607.98 557.91 611.70 549.99
  C 615.73 541.41 627.63 540.00 635.74 542.93
  C 641.36 544.96 644.53 551.55 645.77 557.06
  Q 645.92 557.71 645.26 557.69
  L 634.97 557.39
  A 0.72 0.71 -3.2 0 1 634.27 556.77
  Q 634.03 554.98 633.69 553.14
  C 633.00 549.37 628.75 548.82 625.56 549.50
  Q 620.68 550.53 621.10 555.27
  Q 621.47 559.60 626.33 561.55
  Q 631.45 563.60 636.19 565.70
  C 642.54 568.51 646.04 574.42 644.95 581.14
  C 642.87 593.97 626.15 594.85 616.81 590.24
  C 612.11 587.93 608.20 581.79 609.03 576.60
  A 0.99 0.99 0.0 0 1 610.06 575.78
  L 618.43 576.26
  A 1.03 1.02 -5.5 0 1 619.35 577.01
  C 619.99 579.32 621.06 584.18 624.12 584.47
  Z"
/>
<rect fill="#3d1d51" x="-4.95" y="-24.90" transform="translate(310.68,566.88) rotate(-0.1)" width="9.90" height="49.80" rx="0.52"/>
<path fill="#3d1d51" d="
  M 334.60 562.40
  L 351.38 562.33
  A 0.57 0.57 0.0 0 0 351.95 561.77
  L 352.18 542.58
  A 0.57 0.57 0.0 0 1 352.75 542.02
  L 361.52 542.03
  A 0.57 0.57 0.0 0 1 362.09 542.60
  L 361.86 591.17
  A 0.57 0.57 0.0 0 1 361.30 591.74
  L 352.51 591.85
  A 0.57 0.57 0.0 0 1 351.94 591.28
  L 352.13 571.29
  A 0.57 0.57 0.0 0 0 351.57 570.72
  L 334.76 570.62
  A 0.57 0.57 0.0 0 0 334.19 571.19
  L 334.25 591.15
  A 0.57 0.57 0.0 0 1 333.68 591.72
  L 324.81 591.70
  A 0.57 0.57 0.0 0 1 324.24 591.13
  L 324.19 542.59
  A 0.57 0.57 0.0 0 1 324.77 542.02
  L 333.44 542.24
  A 0.57 0.57 0.0 0 1 333.99 542.81
  L 334.03 561.83
  A 0.57 0.57 0.0 0 0 334.60 562.40
  Z"
/>
<path fill="#3d1d51" d="
  M 677.47 580.82
  L 661.77 581.01
  Q 661.06 581.01 660.87 581.69
  L 658.15 591.11
  Q 657.80 592.35 656.51 592.33
  L 649.05 592.20
  Q 647.75 592.18 648.13 590.94
  Q 654.26 571.14 662.12 551.17
  Q 663.71 547.13 664.92 542.90
  A 0.90 0.90 0.0 0 1 665.76 542.25
  L 674.27 542.08
  Q 674.99 542.07 675.24 542.75
  L 693.08 591.17
  Q 693.09 591.21 693.05 591.21
  Q 684.38 591.56 682.83 591.35
  Q 682.74 591.33 682.71 591.25
  L 678.80 581.70
  A 1.43 1.42 78.4 0 0 677.47 580.82
  Z
  M 664.02 572.27
  A 0.53 0.53 0.0 0 0 664.51 572.97
  L 675.88 573.03
  A 0.53 0.53 0.0 0 0 676.38 572.33
  L 670.79 555.76
  A 0.53 0.53 0.0 0 0 669.79 555.76
  L 664.02 572.27
  Z"
/>
<path fill="#3d1d51" d="
  M 697.86 542.47
  A 0.46 0.46 0.0 0 1 698.32 542.01
  L 711.74 542.03
  A 22.88 22.85 0.1 0 1 734.58 564.92
  L 734.58 568.88
  A 22.88 22.85 0.1 0 1 711.66 591.69
  L 698.24 591.67
  A 0.46 0.46 0.0 0 1 697.78 591.21
  L 697.86 542.47
  Z
  M 708.02 550.38
  L 707.90 583.02
  A 0.34 0.34 0.0 0 0 708.24 583.36
  L 711.34 583.37
  A 13.28 13.10 -89.8 0 0 724.49 570.14
  L 724.51 563.38
  A 13.28 13.10 -89.8 0 0 711.46 550.05
  L 708.36 550.04
  A 0.34 0.34 0.0 0 0 708.02 550.38
  Z"
/>
<path fill="#3d1d51" d="
  M 375.91 591.70
  L 366.52 591.77
  A 0.48 0.48 0.0 0 1 366.07 591.12
  L 383.92 542.73
  A 0.48 0.48 0.0 0 1 384.36 542.41
  L 393.51 542.28
  A 0.48 0.48 0.0 0 1 393.97 542.59
  L 411.17 591.00
  A 0.48 0.48 0.0 0 1 410.72 591.64
  L 401.39 591.75
  A 0.48 0.48 0.0 0 1 400.94 591.42
  L 397.56 581.77
  A 0.48 0.48 0.0 0 0 397.11 581.44
  L 380.23 581.61
  A 0.48 0.48 0.0 0 0 379.79 581.92
  L 376.35 591.39
  A 0.48 0.48 0.0 0 1 375.91 591.70
  Z
  M 382.81 572.25
  A 0.70 0.70 0.0 0 0 383.47 573.18
  L 393.93 573.23
  A 0.70 0.70 0.0 0 0 394.60 572.31
  L 389.45 556.88
  A 0.70 0.70 0.0 0 0 388.12 556.87
  L 382.81 572.25
  Z"
/>
<path fill="#3d1d51" d="
  M 442.89 572.48
  Q 444.69 573.78 445.69 575.67
  Q 449.87 583.61 454.47 591.60
  A 0.28 0.28 0.0 0 1 454.22 592.02
  L 443.57 591.79
  A 1.24 1.22 76.7 0 1 442.49 591.11
  Q 438.94 583.99 435.02 576.84
  C 433.15 573.42 430.57 574.04 427.23 573.60
  A 0.68 0.68 0.0 0 0 426.46 574.27
  L 426.43 591.27
  A 0.45 0.45 0.0 0 1 425.98 591.72
  L 416.76 591.74
  Q 416.27 591.74 416.27 591.26
  L 416.19 542.75
  Q 416.19 542.19 416.75 542.20
  Q 423.60 542.33 431.25 542.20
  C 440.70 542.04 449.70 544.83 451.85 554.96
  C 453.53 562.89 449.53 568.26 442.92 571.93
  A 0.33 0.33 0.0 0 0 442.89 572.48
  Z
  M 426.35 550.89
  L 426.33 566.05
  A 0.48 0.48 0.0 0 0 426.81 566.53
  L 432.41 566.54
  A 9.34 7.38 0.1 0 0 441.76 559.17
  L 441.76 557.81
  A 9.34 7.38 0.1 0 0 432.43 550.42
  L 426.83 550.41
  A 0.48 0.48 0.0 0 0 426.35 550.89
  Z"
/>
<rect fill="#3d1d51" x="-5.09" y="-24.84" transform="translate(464.46,567.15) rotate(0.1)" width="10.18" height="49.68" rx="0.43"/>
<path fill="#3d1d51" d="
  M 489.28 574.32
  Q 488.54 574.24 488.53 574.99
  L 488.44 590.92
  Q 488.43 591.77 487.58 591.76
  L 479.79 591.73
  Q 478.86 591.72 478.86 590.79
  L 478.85 542.58
  A 0.28 0.28 0.0 0 1 479.13 542.30
  Q 488.87 542.19 497.59 542.33
  C 509.04 542.52 516.61 550.35 514.88 562.04
  C 513.83 569.09 506.86 573.55 500.23 574.32
  Q 495.20 574.90 489.28 574.32
  Z
  M 488.53 551.27
  L 488.51 565.73
  A 0.90 0.90 0.0 0 0 489.41 566.63
  L 496.31 566.64
  A 8.46 7.17 0.1 0 0 504.78 559.48
  L 504.78 557.56
  A 8.46 7.17 0.1 0 0 496.33 550.38
  L 489.43 550.37
  A 0.90 0.90 0.0 0 0 488.53 551.27
  Z"
/>
<path fill="#3d1d51" d="
  M 592.64 581.75
  L 574.34 581.75
  A 0.47 0.47 0.0 0 0 573.89 582.09
  L 571.22 591.37
  A 0.47 0.47 0.0 0 1 570.77 591.71
  L 560.69 591.80
  A 0.47 0.47 0.0 0 1 560.24 591.17
  L 578.64 542.60
  A 0.47 0.47 0.0 0 1 579.09 542.29
  L 588.08 542.38
  A 0.47 0.47 0.0 0 1 588.51 542.68
  L 607.34 591.48
  A 0.47 0.47 0.0 0 1 606.88 592.12
  L 597.37 591.86
  A 0.47 0.47 0.0 0 1 596.94 591.57
  L 593.08 582.04
  A 0.47 0.47 0.0 0 0 592.64 581.75
  Z
  M 577.10 572.99
  A 0.57 0.57 0.0 0 0 577.64 573.75
  L 589.80 573.77
  A 0.57 0.57 0.0 0 0 590.34 573.01
  L 584.29 555.62
  A 0.57 0.57 0.0 0 0 583.21 555.62
  L 577.10 572.99
  Z"
/>
<path fill="#3d1d51" d="
  M 531.45 574.66
  L 531.51 591.47
  Q 531.51 591.70 531.28 591.70
  L 522.31 591.89
  A 0.40 0.40 0.0 0 1 521.91 591.49
  L 521.50 543.24
  Q 521.49 542.61 522.12 542.60
  Q 531.62 542.35 540.57 542.73
  C 551.35 543.18 558.37 551.06 556.36 562.18
  C 555.62 566.31 552.97 569.28 549.50 571.48
  Q 548.83 571.91 549.18 572.63
  L 558.73 591.92
  Q 558.77 591.99 558.69 591.99
  Q 551.18 592.12 548.43 591.73
  Q 548.33 591.71 548.28 591.63
  Q 543.47 582.68 540.06 575.02
  A 1.88 1.86 -11.3 0 0 538.40 573.92
  L 532.34 573.79
  A 0.87 0.87 0.0 0 0 531.45 574.66
  Z
  M 531.21 551.32
  L 531.25 565.02
  A 0.76 0.76 0.0 0 0 532.02 565.77
  L 539.87 565.75
  A 7.06 7.05 89.8 0 0 546.89 558.66
  L 546.89 557.56
  A 7.06 7.05 89.8 0 0 539.81 550.53
  L 531.96 550.55
  A 0.76 0.76 0.0 0 0 531.21 551.32
  Z"
/>
<path fill="#ffffff" d="
  M 488.53 551.27
  A 0.90 0.90 0.0 0 1 489.43 550.37
  L 496.33 550.38
  A 8.46 7.17 0.1 0 1 504.78 557.56
  L 504.78 559.48
  A 8.46 7.17 0.1 0 1 496.31 566.64
  L 489.41 566.63
  A 0.90 0.90 0.0 0 1 488.51 565.73
  L 488.53 551.27
  Z"
/>
<path fill="#ffffff" d="
  M 708.02 550.38
  A 0.34 0.34 0.0 0 1 708.36 550.04
  L 711.46 550.05
  A 13.28 13.10 -89.8 0 1 724.51 563.38
  L 724.49 570.14
  A 13.28 13.10 -89.8 0 1 711.34 583.37
  L 708.24 583.36
  A 0.34 0.34 0.0 0 1 707.90 583.02
  L 708.02 550.38
  Z"
/>
<path fill="#ffffff" d="
  M 426.35 550.89
  A 0.48 0.48 0.0 0 1 426.83 550.41
  L 432.43 550.42
  A 9.34 7.38 0.1 0 1 441.76 557.81
  L 441.76 559.17
  A 9.34 7.38 0.1 0 1 432.41 566.54
  L 426.81 566.53
  A 0.48 0.48 0.0 0 1 426.33 566.05
  L 426.35 550.89
  Z"
/>
<path fill="#ffffff" d="
  M 531.21 551.32
  A 0.76 0.76 0.0 0 1 531.96 550.55
  L 539.81 550.53
  A 7.06 7.05 89.8 0 1 546.89 557.56
  L 546.89 558.66
  A 7.06 7.05 89.8 0 1 539.87 565.75
  L 532.02 565.77
  A 0.76 0.76 0.0 0 1 531.25 565.02
  L 531.21 551.32
  Z"
/>
<path fill="#ffffff" d="
  M 577.10 572.99
  L 583.21 555.62
  A 0.57 0.57 0.0 0 1 584.29 555.62
  L 590.34 573.01
  A 0.57 0.57 0.0 0 1 589.80 573.77
  L 577.64 573.75
  A 0.57 0.57 0.0 0 1 577.10 572.99
  Z"
/>
<path fill="#ffffff" d="
  M 664.02 572.27
  L 669.79 555.76
  A 0.53 0.53 0.0 0 1 670.79 555.76
  L 676.38 572.33
  A 0.53 0.53 0.0 0 1 675.88 573.03
  L 664.51 572.97
  A 0.53 0.53 0.0 0 1 664.02 572.27
  Z"
/>
<path fill="#ffffff" d="
  M 382.81 572.25
  L 388.12 556.87
  A 0.70 0.70 0.0 0 1 389.45 556.88
  L 394.60 572.31
  A 0.70 0.70 0.0 0 1 393.93 573.23
  L 383.47 573.18
  A 0.70 0.70 0.0 0 1 382.81 572.25
  Z"
/>
<path fill="#3d1d51" d="
  M 537.5228 628.6934
  A 14.92 12.24 87.3 0 1 524.5936 614.3666
  A 14.92 12.24 87.3 0 1 536.1172 598.8866
  A 14.92 12.24 87.3 0 1 549.0464 613.2134
  A 14.92 12.24 87.3 0 1 537.5228 628.6934
  Z
  M 537.2380 624.6747
  A 10.76 7.36 88.2 0 0 544.2564 613.6888
  A 10.76 7.36 88.2 0 0 536.5620 603.1653
  A 10.76 7.36 88.2 0 0 529.5436 614.1512
  A 10.76 7.36 88.2 0 0 537.2380 624.6747
  Z"
/>
<path fill="#3d1d51" d="
  M 383.65 599.90
  A 0.45 0.45 0.0 0 1 384.10 599.45
  L 391.62 599.50
  A 13.06 13.05 -89.6 0 1 404.58 612.65
  L 404.56 614.97
  A 13.06 13.05 -89.6 0 1 391.42 627.94
  L 383.90 627.89
  A 0.45 0.45 0.0 0 1 383.45 627.44
  L 383.65 599.90
  Z
  M 387.62 604.30
  L 387.82 623.18
  A 1.21 1.21 0.0 0 0 389.04 624.38
  L 391.00 624.36
  A 9.20 8.89 89.4 0 0 399.79 615.07
  L 399.76 612.17
  A 9.20 8.89 89.4 0 0 390.78 603.06
  L 388.82 603.08
  A 1.21 1.21 0.0 0 0 387.62 604.30
  Z"
/>
<path fill="#3d1d51" d="
  M 563.21 618.32
  L 563.23 627.28
  Q 563.23 628.04 562.47 628.06
  L 559.36 628.14
  Q 558.46 628.16 558.46 627.26
  L 558.53 599.99
  Q 558.53 599.33 559.20 599.32
  C 565.83 599.24 581.20 597.55 580.17 608.94
  C 579.64 614.85 573.24 617.23 568.02 617.39
  Q 565.96 617.46 563.94 617.55
  Q 563.21 617.59 563.21 618.32
  Z
  M 563.04 604.52
  L 563.04 612.20
  A 1.06 1.06 0.0 0 0 564.10 613.26
  L 568.24 613.26
  A 7.14 4.62 -0.0 0 0 575.38 608.64
  L 575.38 608.08
  A 7.14 4.62 0.0 0 0 568.24 603.46
  L 564.10 603.46
  A 1.06 1.06 0.0 0 0 563.04 604.52
  Z"
/>
<path fill="#3d1d51" d="
  M 593.92 603.89
  L 593.96 611.25
  A 0.75 0.75 0.0 0 0 594.71 612.00
  L 603.49 612.07
  A 0.75 0.75 0.0 0 1 604.23 612.73
  L 604.44 614.33
  A 0.75 0.75 0.0 0 1 603.70 615.17
  L 594.31 615.23
  A 0.75 0.75 0.0 0 0 593.56 615.97
  L 593.50 623.67
  A 0.75 0.75 0.0 0 0 594.24 624.43
  L 606.41 624.57
  A 0.75 0.75 0.0 0 1 607.15 625.32
  L 607.17 627.61
  A 0.75 0.75 0.0 0 1 606.41 628.36
  L 589.69 628.25
  A 0.75 0.75 0.0 0 1 588.95 627.49
  L 589.22 600.04
  A 0.75 0.75 0.0 0 1 589.97 599.30
  L 607.58 599.21
  A 0.75 0.75 0.0 0 1 608.30 600.19
  L 607.55 602.56
  A 0.75 0.75 0.0 0 1 606.83 603.08
  L 594.66 603.14
  A 0.75 0.75 0.0 0 0 593.92 603.89
  Z"
/>
<path fill="#3d1d51" d="
  M 418.90 604.26
  L 419.01 610.83
  A 0.65 0.65 0.0 0 0 419.65 611.47
  L 430.81 611.63
  A 0.65 0.65 0.0 0 1 431.45 612.22
  L 431.64 614.24
  A 0.65 0.65 0.0 0 1 431.01 614.95
  L 419.45 615.14
  A 0.65 0.65 0.0 0 0 418.81 615.79
  L 418.76 624.20
  A 0.65 0.65 0.0 0 0 419.41 624.85
  L 432.91 624.95
  A 0.65 0.65 0.0 0 1 433.55 625.68
  L 433.29 627.68
  A 0.65 0.65 0.0 0 1 432.65 628.25
  L 414.96 628.33
  A 0.65 0.65 0.0 0 1 414.31 627.68
  L 414.32 600.42
  A 0.65 0.65 0.0 0 1 414.97 599.77
  L 434.06 599.71
  A 0.65 0.65 0.0 0 1 434.71 600.41
  L 434.52 602.89
  A 0.65 0.65 0.0 0 1 433.88 603.49
  L 419.55 603.60
  A 0.65 0.65 0.0 0 0 418.90 604.26
  Z"
/>
<path fill="#3d1d51" d="
  M 451.93 619.60
  L 458.72 600.20
  Q 458.97 599.48 459.73 599.48
  L 462.98 599.45
  A 0.58 0.58 0.0 0 1 463.53 600.23
  L 453.36 627.71
  Q 452.89 628.98 451.58 628.65
  Q 449.67 628.17 448.97 626.35
  Q 444.38 614.48 439.78 600.06
  Q 439.60 599.49 440.19 599.50
  L 444.08 599.53
  Q 444.58 599.53 444.73 600.01
  L 450.85 619.59
  Q 451.36 621.23 451.93 619.60
  Z"
/>
<path fill="#3d1d51" d="
  M 632.82 617.81
  L 638.43 626.59
  Q 639.18 627.77 637.79 628.01
  L 636.18 628.28
  Q 634.78 628.51 633.94 627.37
  Q 631.39 623.90 628.88 619.37
  C 627.57 617.02 625.03 616.82 622.52 617.49
  Q 621.90 617.66 621.90 618.30
  L 621.89 627.57
  Q 621.89 628.28 621.18 628.28
  L 617.74 628.27
  Q 616.97 628.27 616.97 627.49
  L 617.11 600.21
  Q 617.11 599.59 617.73 599.55
  Q 624.22 599.16 629.88 599.64
  C 639.59 600.45 639.63 611.88 633.05 616.61
  Q 632.37 617.10 632.82 617.81
  Z
  M 621.76 604.78
  L 621.74 612.34
  A 1.18 1.18 0.0 0 0 622.91 613.52
  L 628.88 613.55
  A 4.28 4.17 -89.8 0 0 633.07 609.28
  L 633.07 607.92
  A 4.28 4.17 -89.8 0 0 628.92 603.63
  L 622.95 603.60
  A 1.18 1.18 0.0 0 0 621.76 604.78
  Z"
/>
<path fill="#3d1d51" d="
  M 477.07 611.94
  L 488.45 612.02
  A 0.75 0.75 0.0 0 1 489.19 612.84
  L 489.05 614.48
  A 0.75 0.75 0.0 0 1 488.34 615.17
  L 476.85 615.70
  A 0.75 0.75 0.0 0 0 476.14 616.44
  L 476.12 623.51
  A 0.75 0.75 0.0 0 0 476.85 624.26
  L 489.70 624.59
  A 0.75 0.75 0.0 0 1 490.43 625.38
  L 490.34 627.09
  A 0.75 0.75 0.0 0 1 489.60 627.80
  L 472.62 628.16
  A 0.75 0.75 0.0 0 1 471.85 627.41
  L 471.85 600.47
  A 0.75 0.75 0.0 0 1 472.60 599.72
  L 490.50 599.83
  A 0.75 0.75 0.0 0 1 491.24 600.65
  L 491.07 602.48
  A 0.75 0.75 0.0 0 1 490.34 603.16
  L 477.03 603.32
  A 0.75 0.75 0.0 0 0 476.28 604.08
  L 476.33 611.19
  A 0.75 0.75 0.0 0 0 477.07 611.94
  Z"
/>
<path fill="#3d1d51" d="
  M 517.63 625.04
  L 517.55 627.24
  A 0.77 0.77 0.0 0 1 516.78 627.98
  L 501.58 627.99
  A 0.77 0.77 0.0 0 1 500.81 627.22
  L 500.90 601.16
  A 0.77 0.77 0.0 0 1 501.66 600.39
  L 504.69 600.38
  A 0.77 0.77 0.0 0 1 505.47 601.15
  L 505.36 623.50
  A 0.77 0.77 0.0 0 0 506.14 624.28
  L 516.86 624.24
  A 0.77 0.77 0.0 0 1 517.63 625.04
  Z"
/>
<path fill="#ffffff" d="
  M 387.62 604.30
  A 1.21 1.21 0.0 0 1 388.82 603.08
  L 390.78 603.06
  A 9.20 8.89 89.4 0 1 399.76 612.17
  L 399.79 615.07
  A 9.20 8.89 89.4 0 1 391.00 624.36
  L 389.04 624.38
  A 1.21 1.21 0.0 0 1 387.82 623.18
  L 387.62 604.30
  Z"
/>
<ellipse fill="#ffffff" cx="0.00" cy="0.00" transform="translate(536.90,613.92) rotate(88.2)" rx="10.76" ry="7.36"/>
<path fill="#ffffff" d="
  M 563.04 604.52
  A 1.06 1.06 0.0 0 1 564.10 603.46
  L 568.24 603.46
  A 7.14 4.62 0.0 0 1 575.38 608.08
  L 575.38 608.64
  A 7.14 4.62 0.0 0 1 568.24 613.26
  L 564.10 613.26
  A 1.06 1.06 0.0 0 1 563.04 612.20
  L 563.04 604.52
  Z"
/>
<path fill="#ffffff" d="
  M 621.76 604.78
  A 1.18 1.18 0.0 0 1 622.95 603.60
  L 628.92 603.63
  A 4.28 4.17 -89.8 0 1 633.07 607.92
  L 633.07 609.28
  A 4.28 4.17 -89.8 0 1 628.88 613.55
  L 622.91 613.52
  A 1.18 1.18 0.0 0 1 621.74 612.34
  L 621.76 604.78
  Z"
/>
</svg>
